<svg width="349" height="476" viewBox="0 0 349 476" fill="none" xmlns="http://www.w3.org/2000/svg">
<g clip-path="url(#clip0_10_3)">
<path d="M349 181.68C349 183.032 348.986 184.382 348.958 185.73C348.945 186.611 348.921 187.492 348.891 188.373C348.885 188.626 348.879 188.872 348.867 189.125C348.848 189.609 348.83 190.088 348.812 190.559C348.679 193.707 348.473 196.833 348.194 199.937C348.182 200.087 348.169 200.237 348.157 200.38C348.127 200.688 348.103 200.995 348.066 201.303C347.982 202.225 347.891 203.147 347.788 204.055C347.721 204.67 347.654 205.278 347.581 205.892C347.545 206.186 347.509 206.48 347.478 206.767C347.436 207.088 347.4 207.402 347.357 207.716C347.339 207.853 347.321 207.989 347.303 208.133C347.242 208.597 347.181 209.068 347.115 209.533C347.036 210.141 346.951 210.742 346.86 211.35C346.775 211.951 346.684 212.552 346.587 213.153C346.496 213.754 346.399 214.355 346.302 214.956C346.205 215.564 346.102 216.165 345.999 216.766C345.478 219.744 344.896 222.697 344.253 225.624C343.999 226.765 343.738 227.903 343.471 229.039C343.029 230.883 342.562 232.719 342.071 234.544C341.932 235.05 341.792 235.555 341.653 236.054C341.495 236.628 341.331 237.201 341.168 237.768C341.004 238.342 340.84 238.909 340.671 239.476C340.501 240.043 340.331 240.61 340.155 241.176C339.986 241.736 339.81 242.303 339.628 242.863C339.452 243.43 339.27 243.99 339.089 244.55C338.901 245.111 338.719 245.671 338.531 246.224C338.155 247.344 337.769 248.453 337.373 249.55C337.179 250.103 336.979 250.657 336.773 251.203C335.967 253.402 335.122 255.576 334.239 257.726C334.045 258.204 333.851 258.682 333.651 259.153C333.517 259.467 333.39 259.775 333.257 260.089C333.032 260.608 332.814 261.12 332.59 261.632C332.366 262.152 332.135 262.677 331.899 263.203C331.432 264.242 330.957 265.277 330.474 266.311C329.995 267.342 329.504 268.374 329.001 269.391C328.498 270.409 327.989 271.427 327.474 272.431C327.213 272.936 326.952 273.442 326.692 273.94C325.643 275.941 324.56 277.92 323.442 279.876C322.333 281.822 321.187 283.746 320.005 285.647C319.417 286.596 318.817 287.546 318.211 288.481C317.968 288.857 317.726 289.226 317.483 289.595C317.186 290.059 316.877 290.517 316.568 290.974C303.43 310.663 286.874 327.133 267.907 339.383C248.939 351.632 227.958 359.405 206.24 362.228C184.521 365.051 162.52 362.865 141.576 355.803C120.631 348.741 101.181 336.95 84.4098 321.15C82.6396 319.483 80.9018 317.776 79.1964 316.027C68.2526 304.799 58.7254 291.934 50.8806 277.792C49.9046 276.023 48.9468 274.234 48.0254 272.431C33.8801 244.845 26.4541 213.538 26.499 181.68C26.499 81.3392 98.6919 -3.53162e-05 187.749 -3.53162e-05C214.547 -0.0183344 240.925 7.49453 264.496 21.8583C288.067 36.222 308.085 56.983 322.739 82.2613C323.006 82.7189 323.273 83.1833 323.539 83.6478C338.109 109.195 346.726 138.47 348.594 168.764C348.867 173.026 349.002 177.331 349 181.68Z" fill="#FBDCDC"/>
<path d="M323.539 83.6478H100.183C100.023 83.6434 99.8699 83.5684 99.7577 83.4389C99.6455 83.3094 99.5827 83.1355 99.5827 82.9545C99.5827 82.7735 99.6455 82.5997 99.7577 82.4702C99.8699 82.3407 100.023 82.2657 100.183 82.2613H322.739C323.006 82.7189 323.273 83.1834 323.539 83.6478Z" fill="#CACACA"/>
<path d="M113.734 73.9417C117.392 73.9417 120.357 70.5263 120.357 66.3133C120.357 62.1003 117.392 58.6849 113.734 58.6849C110.076 58.6849 107.111 62.1003 107.111 66.3133C107.111 70.5263 110.076 73.9417 113.734 73.9417Z" fill="#3F3D56"/>
<path d="M136.614 73.9417C140.271 73.9417 143.237 70.5263 143.237 66.3133C143.237 62.1003 140.271 58.6849 136.614 58.6849C132.956 58.6849 129.991 62.1003 129.991 66.3133C129.991 70.5263 132.956 73.9417 136.614 73.9417Z" fill="#3F3D56"/>
<path d="M159.493 73.9417C163.151 73.9417 166.116 70.5263 166.116 66.3133C166.116 62.1003 163.151 58.6849 159.493 58.6849C155.835 58.6849 152.87 62.1003 152.87 66.3133C152.87 70.5263 155.835 73.9417 159.493 73.9417Z" fill="#3F3D56"/>
<path d="M348.594 168.764C342.768 171.749 337.549 176.571 332.99 183.203C327.722 190.873 322.078 196.276 316.313 199.936C316.041 200.107 315.774 200.271 315.501 200.435C310.333 203.573 304.666 205.53 298.824 206.193C297.06 206.393 295.287 206.489 293.514 206.48C292.775 206.473 292.035 206.452 291.301 206.411C289.562 206.316 287.84 206.125 286.149 205.851C276.437 204.294 267.653 200.087 261.149 196.132C252.236 190.594 242.562 186.78 232.53 184.849C230.735 184.514 228.945 184.252 227.159 184.063C226.419 183.982 225.686 183.92 224.952 183.865C223.152 183.729 221.353 183.665 219.557 183.674C218.636 183.681 217.72 183.701 216.799 183.742C201.316 184.425 181.124 189.398 163.016 206.767C162.774 206.999 162.537 207.231 162.295 207.463C162.071 207.682 161.846 207.907 161.622 208.133C158.756 211.003 156.055 214.076 153.535 217.333C150.647 221.063 147.974 224.998 145.533 229.115C142.635 233.934 139.25 238.357 135.446 242.297C129.82 248.147 125.314 255.231 122.205 263.115C119.096 270.998 117.451 279.514 117.369 288.14V288.482C117.363 288.85 117.363 289.226 117.363 289.595H317.489C317.732 289.226 317.974 288.857 318.211 288.482C318.817 287.546 319.417 286.596 320.005 285.647C321.187 283.748 322.333 281.824 323.442 279.876C324.564 277.922 325.647 275.944 326.692 273.94C326.952 273.442 327.213 272.936 327.474 272.431C327.989 271.427 328.498 270.409 329.001 269.391C329.504 268.374 329.995 267.342 330.474 266.311C330.959 265.28 331.434 264.244 331.899 263.203C332.135 262.678 332.366 262.152 332.59 261.633C332.814 261.12 333.033 260.608 333.257 260.089C333.39 259.775 333.518 259.467 333.651 259.153C333.851 258.682 334.045 258.204 334.239 257.726C335.124 255.574 335.969 253.4 336.773 251.203C336.979 250.657 337.179 250.103 337.373 249.55C337.767 248.45 338.153 247.342 338.531 246.224C338.719 245.671 338.901 245.111 339.089 244.551C339.27 243.99 339.452 243.43 339.628 242.863C339.81 242.303 339.986 241.737 340.155 241.176C340.331 240.61 340.501 240.043 340.671 239.476C340.84 238.909 341.004 238.342 341.168 237.768C341.332 237.201 341.495 236.628 341.653 236.054C341.792 235.555 341.932 235.05 342.071 234.544C342.562 232.721 343.029 230.886 343.471 229.039C343.738 227.906 343.999 226.767 344.253 225.624C344.896 222.701 345.478 219.748 345.999 216.766C346.102 216.165 346.205 215.564 346.302 214.956C346.399 214.355 346.496 213.754 346.587 213.153C346.684 212.552 346.775 211.951 346.86 211.35C346.951 210.742 347.036 210.141 347.115 209.533C347.181 209.068 347.242 208.597 347.303 208.133C347.321 207.989 347.339 207.853 347.357 207.716C347.4 207.395 347.436 207.081 347.472 206.767C347.509 206.473 347.545 206.179 347.581 205.892C347.654 205.278 347.721 204.67 347.788 204.055C347.891 203.147 347.982 202.225 348.066 201.303H348.073C348.097 200.995 348.127 200.688 348.157 200.381C348.169 200.237 348.182 200.087 348.194 199.937C348.473 196.836 348.679 193.71 348.812 190.559C348.83 190.088 348.848 189.61 348.867 189.125C348.879 188.872 348.885 188.626 348.891 188.373C348.921 187.492 348.945 186.611 348.958 185.73C348.988 184.385 349.002 183.034 349 181.68C349 177.336 348.865 173.031 348.594 168.764Z" fill="#FA8383"/>
<path d="M160.947 214.57H158.735V287.61H160.947V214.57Z" fill="#3F3D56"/>
<path d="M227.162 180.458H224.95V287.61H227.162V180.458Z" fill="#3F3D56"/>
<path d="M293.513 202.885H291.301V287.61H293.513V202.885Z" fill="#3F3D56"/>
<path d="M226.192 189.798C229.929 189.798 232.958 186.385 232.958 182.175C232.958 177.965 229.929 174.552 226.192 174.552C222.456 174.552 219.426 177.965 219.426 182.175C219.426 186.385 222.456 189.798 226.192 189.798Z" fill="#3F3D56"/>
<path d="M292.544 210.98C296.28 210.98 299.31 207.567 299.31 203.357C299.31 199.146 296.28 195.733 292.544 195.733C288.807 195.733 285.778 199.146 285.778 203.357C285.778 207.567 288.807 210.98 292.544 210.98Z" fill="#3F3D56"/>
<path d="M158.629 216.046C162.365 216.046 165.395 212.633 165.395 208.423C165.395 204.213 162.365 200.8 158.629 200.8C154.892 200.8 151.863 204.213 151.863 208.423C151.863 212.633 154.892 216.046 158.629 216.046Z" fill="#3F3D56"/>
<path d="M318.211 288.481C317.968 288.857 317.726 289.226 317.483 289.595C317.186 290.059 316.877 290.517 316.568 290.974H117.145V288.481H318.211Z" fill="#3F3D56"/>
<path d="M61.0577 467.945H67.4659L70.5145 440.095L61.0565 440.095L61.0577 467.945Z" fill="#FFB8B8"/>
<path d="M77.7294 468.242C76.9854 467.396 76.0993 466.725 75.1227 466.268C74.1453 465.817 73.0993 465.585 72.0432 465.585L68.2665 462.361L68.0665 462.45L61.2285 465.585H59.422V474.942H80.0875V474.648C80.0906 473.458 79.8838 472.278 79.479 471.179C79.0742 470.079 78.4795 469.081 77.7294 468.242Z" fill="#2F2E41"/>
<path d="M90.8303 467.945H97.2385L100.287 440.095L90.8291 440.095L90.8303 467.945Z" fill="#FFB8B8"/>
<path d="M107.506 468.242C106.761 467.394 105.873 466.723 104.893 466.268C103.916 465.816 102.87 465.584 101.814 465.585L98.0433 462.361L97.8372 462.457L90.9992 465.585H89.1927L89.1988 474.942H109.858V474.648C109.861 473.458 109.655 472.28 109.251 471.18C108.847 470.081 108.254 469.082 107.506 468.242Z" fill="#2F2E41"/>
<path d="M95.9527 315.536L45.6021 317.016L46.4778 344.641C46.4778 344.641 45.6021 352.041 47.3535 354.014C49.1048 355.987 49.9804 355.987 49.1048 359.44C48.2291 362.893 52.8557 368.533 52.2937 369.166C51.7318 369.799 50.4183 373.253 50.4183 373.253L54.7966 401.371C54.7966 401.371 57.8614 450.208 58.7371 451.194C59.6127 452.181 60.4884 451.194 59.6127 453.661C58.7371 456.127 57.8614 455.141 58.7371 456.127C59.5127 457.069 60.2435 458.057 60.9262 459.087H71.5117C71.5117 459.087 72.3098 454.154 72.3098 453.661C72.3098 453.167 73.1855 450.207 73.1855 449.714C73.1855 449.221 72.4115 448.349 72.4115 448.349C72.1441 447.346 71.9634 446.316 71.872 445.274C71.872 444.288 69.245 406.304 69.245 406.304L74.499 356.974L87.1961 405.317C87.1961 405.317 87.1961 447.741 88.0717 448.728C88.9474 449.714 88.9474 449.221 88.5096 451.194C88.0718 453.167 86.3204 452.674 87.6339 454.154C88.9474 455.634 89.3853 453.167 88.9474 455.634L88.5096 458.1L101.645 458.312C101.645 458.312 103.396 454.154 102.52 452.674C101.645 451.194 101.697 451.598 102.765 449.176C103.834 446.754 104.271 446.261 103.834 445.768C103.396 445.274 103.396 442.651 103.396 442.651L101.207 395.451C101.207 395.451 100.769 345.628 100.769 344.148C100.736 343.386 100.86 342.627 101.133 341.929V339.92L99.4554 332.802L95.9527 315.536Z" fill="#2F2E41"/>
<path d="M152.934 207.946C152.692 208.704 152.306 209.393 151.802 209.964C151.298 210.535 150.689 210.975 150.018 211.253C149.347 211.53 148.63 211.639 147.918 211.57C147.206 211.502 146.516 211.258 145.896 210.857L124.04 231.487L122.852 221.403L144.229 202.965C144.897 201.837 145.909 201.024 147.073 200.68C148.237 200.337 149.472 200.486 150.545 201.1C151.618 201.714 152.454 202.75 152.894 204.012C153.334 205.273 153.349 206.673 152.934 207.946H152.934Z" fill="#FFB8B8"/>
<path d="M56.5606 216.461C64.0566 216.461 70.1333 209.614 70.1333 201.168C70.1333 192.723 64.0566 185.876 56.5606 185.876C49.0645 185.876 42.9878 192.723 42.9878 201.168C42.9878 209.614 49.0645 216.461 56.5606 216.461Z" fill="#FFB8B8"/>
<path d="M67.564 185.949C66.3004 182.556 60.8851 180.541 52.3161 180.845C43.7472 181.148 42.2466 192.661 42.2466 192.661C37.5268 197.618 45.1468 213.093 46.4688 210.959C47.7908 208.826 50.0104 210.842 50.0104 210.842L47.8951 197.437C50.1289 198.405 52.5313 199.056 54.6323 197.928L51.1512 195.83L59.8067 197.044L56.2371 193.95C56.3236 193.918 56.4102 193.884 56.4967 193.851C57.9282 194.547 59.4613 194.939 61.019 195.008C62.8388 194.993 64.7728 194.032 65.5354 192.17C65.7381 191.659 65.848 191.107 65.8584 190.547C68.3676 191.465 69.6851 194.777 69.6851 194.777C69.2087 191.77 68.499 188.816 67.564 185.949Z" fill="#2F2E41"/>
<path d="M67.425 217.145C64.394 217.145 62.442 217.616 57.7257 218.511C49.0206 220.163 54.234 229.483 54.234 229.483C54.234 229.483 54.628 229.257 53.5611 229.483C52.4942 229.708 48.8569 233.253 48.8569 233.253L42.3524 239.762C32.55 248.429 34.7445 261.953 34.7445 261.953L49.0388 278.161L42.7767 310.679C42.7767 310.679 45.4379 315.507 44.0618 317.673C42.6857 319.838 56.1859 319.216 56.1859 319.216C65.5033 323.895 98.3293 319.94 98.3293 319.94C97.8746 318.601 93.4796 308.227 93.4796 308.227C95.3892 304.511 93.5706 299.143 93.5706 299.143C93.5706 299.143 91.6732 273.748 90.4607 270.238C89.2483 266.727 93.5645 247.705 96.4015 247.91C99.2386 248.115 117.564 237.583 117.564 237.583C117.564 237.583 117.103 236.757 123.153 233.97C126.628 232.432 129.814 230.168 132.544 227.297L135.029 221.703C133.835 222.222 129.803 213.658 129.803 213.658L128.045 214.413L127.027 214.081C127.027 214.081 119.08 216.629 117.455 218.486C115.83 220.344 115.285 219.825 113.818 220.242C112.351 220.658 112.169 221.819 111.708 221.69C111.247 221.56 110.429 223.131 109.787 222.926C109.144 222.721 107.768 223.547 106.852 223.752C105.937 223.957 99.4325 227.058 99.4325 227.058C95.4073 224.763 84.4957 225.692 84.4957 225.692C84.4957 225.692 80.9251 223.322 79.9127 225.692C79.6404 226.365 79.203 226.937 78.6521 227.34C78.1012 227.743 77.4597 227.96 76.8029 227.967L72.4504 225.87C72.1975 226.91 67.4499 216.066 67.425 217.145Z" fill="#3F3D56"/>
<path d="M18.7545 437.8L18.1496 422.478C11.8445 418.68 4.81188 416.675 -2.33745 416.635C7.50215 425.698 6.27248 443.17 12.9435 455.359C15.05 459.142 17.8852 462.343 21.2389 464.725C24.5926 467.106 28.379 468.606 32.3173 469.115L40.5515 474.795C41.6813 467.698 41.4322 460.41 39.8213 453.432C38.2104 446.454 35.276 439.952 31.2202 434.375C28.9175 431.272 26.277 428.508 23.3612 426.148C21.3891 432.007 18.7545 437.8 18.7545 437.8Z" fill="#F2F2F2"/>
<path d="M-16 475.187C-16.0003 475.294 -15.9818 475.4 -15.9456 475.499C-15.9095 475.597 -15.8564 475.687 -15.7893 475.763C-15.7223 475.838 -15.6426 475.898 -15.555 475.939C-15.4673 475.979 -15.3734 476 -15.2786 476H156.453C156.645 476 156.828 475.914 156.963 475.762C157.099 475.609 157.175 475.403 157.175 475.187C157.175 474.972 157.099 474.765 156.963 474.612C156.828 474.46 156.645 474.374 156.453 474.374H-15.2786C-15.3734 474.374 -15.4673 474.395 -15.555 474.436C-15.6426 474.476 -15.7223 474.536 -15.7893 474.612C-15.8564 474.687 -15.9095 474.777 -15.9456 474.876C-15.9818 474.975 -16.0003 475.08 -16 475.187Z" fill="#CCCCCC"/>
<path d="M163.13 206.766H159.493V208.132H163.13V206.766Z" fill="#3F3D56"/>
<path d="M170.473 206.767V208.133H177.82V206.767H170.473ZM185.167 206.767V208.133H192.508V206.767H185.167ZM199.855 206.767V208.133H207.203V206.767H199.855ZM214.544 206.767V208.133H221.891V206.767H214.544ZM229.238 206.767V208.133H236.579V206.767H229.238ZM243.927 206.767V208.133H251.274V206.767H243.927ZM258.615 206.767V208.133H265.962V206.767H258.615ZM273.309 206.767V208.133H280.65V206.767H273.309ZM287.998 206.767V208.133H295.345V206.767H287.998ZM302.686 206.767V208.133H310.033V206.767H302.686ZM317.374 206.767V208.133H324.722V206.767H317.374ZM332.069 206.767V208.133H339.41V206.767H332.069ZM346.757 206.767V208.133H347.303C347.321 207.989 347.339 207.853 347.357 207.716C347.4 207.402 347.436 207.088 347.478 206.767H346.757Z" fill="#3F3D56"/>
<path d="M226.175 179.446H222.538V180.812H226.175V179.446Z" fill="#3F3D56"/>
<path d="M233.518 179.446V180.812H240.865V179.446H233.518ZM248.212 179.446V180.812H255.553V179.446H248.212ZM262.901 179.446V180.812H270.248V179.446H262.901ZM277.589 179.446V180.812H284.936V179.446H277.589ZM292.283 179.446V180.812H299.625V179.446H292.283ZM306.972 179.446V180.812H314.319V179.446H306.972ZM321.66 179.446V180.812H329.007V179.446H321.66ZM336.355 179.446V180.812H343.696V179.446H336.355Z" fill="#3F3D56"/>
<path d="M293.464 199.936H289.827V201.302H293.464V199.936Z" fill="#3F3D56"/>
<path d="M300.807 199.936V201.303H308.154V199.936H300.807ZM315.501 199.936V201.303H322.842V199.936H315.501ZM330.189 199.936V201.303H337.537V199.936H330.189ZM344.878 199.936V201.303H348.073C348.097 200.995 348.127 200.688 348.157 200.38C348.17 200.237 348.182 200.087 348.194 199.936H344.878Z" fill="#3F3D56"/>
<path d="M76.814 342.397V298.405C76.8149 297.515 77.1292 296.661 77.688 296.032C78.2469 295.402 79.0045 295.048 79.7948 295.047H109.283C110.073 295.048 110.831 295.402 111.389 296.032C111.948 296.661 112.263 297.515 112.263 298.405V342.397C112.263 343.288 111.948 344.141 111.389 344.771C110.831 345.401 110.073 345.755 109.283 345.756H79.7948C79.0045 345.755 78.2469 345.401 77.688 344.771C77.1292 344.141 76.8149 343.288 76.814 342.397Z" fill="#E6E6E6"/>
<path d="M79.0759 329.11V300.828C79.0767 299.994 79.3711 299.194 79.8945 298.605C80.4178 298.015 81.1274 297.683 81.8675 297.682H107.21C107.95 297.683 108.66 298.015 109.183 298.605C109.706 299.194 110.001 299.994 110.002 300.828V339.975C110.001 340.809 109.706 341.608 109.183 342.198C108.66 342.787 107.95 343.119 107.21 343.12H91.5108C88.214 343.116 85.0534 341.638 82.7222 339.012C80.391 336.385 79.0797 332.824 79.0759 329.11Z" fill="white"/>
<path d="M83.1792 308.719C83.18 307.904 83.4676 307.123 83.979 306.547C84.4904 305.97 85.1838 305.646 85.9071 305.645H103.487C104.211 305.645 104.904 305.969 105.416 306.546C105.928 307.122 106.215 307.904 106.215 308.719C106.215 309.534 105.928 310.316 105.416 310.892C104.904 311.469 104.211 311.793 103.487 311.793H85.9071C85.1838 311.792 84.4904 311.468 83.979 310.891C83.4676 310.315 83.18 309.534 83.1792 308.719Z" fill="#E6E6E6"/>
<path d="M83.1792 318.281C83.18 317.466 83.4676 316.685 83.979 316.109C84.4904 315.533 85.1838 315.208 85.9071 315.208H103.487C104.211 315.208 104.904 315.531 105.416 316.108C105.928 316.684 106.215 317.466 106.215 318.281C106.215 319.096 105.928 319.878 105.416 320.454C104.904 321.031 104.211 321.355 103.487 321.355H85.9071C85.1838 321.354 84.4904 321.03 83.979 320.453C83.4676 319.877 83.18 319.096 83.1792 318.281Z" fill="#E6E6E6"/>
<path d="M83.1792 327.843C83.18 327.028 83.4676 326.247 83.979 325.671C84.4904 325.095 85.1838 324.771 85.9071 324.77H103.487C104.211 324.77 104.904 325.093 105.416 325.67C105.928 326.246 106.215 327.028 106.215 327.843C106.215 328.658 105.928 329.44 105.416 330.016C104.904 330.593 104.211 330.917 103.487 330.917H85.9071C85.1838 330.916 84.4904 330.592 83.979 330.015C83.4676 329.439 83.18 328.658 83.1792 327.843Z" fill="#E6E6E6"/>
<path d="M77.5105 327.03C76.8475 327.043 76.1898 326.893 75.5838 326.59C74.9778 326.286 74.4383 325.837 74.0032 325.273C73.5681 324.709 73.248 324.044 73.0655 323.326C72.883 322.608 72.8425 321.853 72.9469 321.115L47.7712 305.584L55.1395 301.094L78.4697 316.881C79.5583 317.161 80.518 317.881 81.1669 318.905C81.8159 319.928 82.109 321.184 81.9908 322.435C81.8725 323.686 81.3512 324.845 80.5254 325.692C79.6997 326.538 78.627 327.014 77.5105 327.03Z" fill="#FFB8B8"/>
<path d="M62.8713 315.549L53.9438 313.762L50.7472 310.768L48.5973 309.534L41.1879 303.675L41.1658 303.601L29.3924 264.39C28.8518 261.17 29.4242 257.839 30.9923 255.078C32.5605 252.318 35.0058 250.338 37.8275 249.543C39.3879 249.106 41.0128 249.046 42.5952 249.367C44.1777 249.688 45.6818 250.383 47.0086 251.407C48.3354 252.43 49.4548 253.758 50.2931 255.304C51.1314 256.85 51.6696 258.579 51.8723 260.376L55.6613 293.982L61.9419 301.289L64.6899 301.889L65.3225 305.223L67.721 309.402L62.8713 315.549Z" fill="#3F3D56"/>
</g>
<defs>
<clipPath id="clip0_10_3">
<rect width="365" height="476" fill="white" transform="translate(-16)"/>
</clipPath>
</defs>
</svg>
