<svg width="360" height="576" viewBox="0 0 360 576" fill="none" xmlns="http://www.w3.org/2000/svg">
<g clip-path="url(#clip0_11_50)">
<path d="M380.214 351.836C379.4 353.333 378.551 354.805 377.674 356.268C344.062 412.283 265.874 447.071 134.012 428.659C59.1411 417.707 27.2558 457.877 -3.61905 499.022C-4.14703 499.733 -4.67459 500.443 -5.21133 501.153C-37.5439 544.3 -69.5547 587.567 -149.595 573.185C-234.447 560.351 -286.814 494.445 -294.917 424.081C-295.016 423.226 -295.105 422.362 -295.186 421.506C-299.738 375.886 -285.669 328.649 -249.777 292.988C-228.096 271.453 -197.293 260.014 -165.497 260.373C-155.924 260.544 -146.355 259.865 -136.912 258.346C-134.828 257.995 -132.807 257.61 -130.839 257.174C-90.3316 248.318 -71.6653 221.992 -60.2172 189.865C-59.9486 189.103 -59.6804 188.342 -59.421 187.572C-33.1344 110.954 -45.2896 3.41493 97.6184 19.2347C225.5 28.2526 319.35 96.0836 365.385 174.344C365.841 175.131 366.297 175.918 366.744 176.706C379.397 198.42 388.426 221.893 393.505 246.273C393.791 247.642 394.051 249.011 394.292 250.38C400.803 286.726 396.537 322.053 380.214 351.836Z" fill="#FBDCDC" fill-opacity="0.42"/>
<path d="M366.744 176.706C357.569 187.136 347.231 196.578 335.915 204.863C291.829 237.204 235.992 254.744 180.905 258.423C152.596 260.327 124.147 258.478 96.3665 252.93C68.1032 247.266 41.1458 237.29 15.0382 225.637C-10.3541 214.3 -34.9947 201.518 -60.217 189.864C-59.9484 189.103 -59.6803 188.342 -59.4209 187.572C-31.918 200.234 -4.97843 214.189 22.8463 226.253C49.0613 237.623 76.1974 246.898 104.577 251.86C132.893 256.778 161.791 257.861 190.422 255.077C245.356 249.79 301.239 230.402 343.472 195.717C351.402 189.205 358.733 182.055 365.385 174.344C365.841 175.131 366.297 175.918 366.744 176.706Z" fill="white"/>
<path d="M175.878 0.804809C175.814 0.804809 175.75 0.806764 175.685 0.810682C107.897 4.8733 54.7967 59.0003 54.7967 124.037C54.7967 189.073 107.897 243.201 175.685 247.262C176.09 247.288 176.497 247.234 176.879 247.102C177.261 246.971 177.61 246.766 177.905 246.499C178.199 246.237 178.434 245.919 178.594 245.566C178.753 245.213 178.835 244.833 178.833 244.448V3.62501C178.831 2.87634 178.519 2.15893 177.965 1.6302C177.411 1.10148 176.66 0.804622 175.878 0.804779L175.878 0.804809Z" fill="#FBDCDC"/>
<path d="M279.522 206.326C278.517 206.326 277.553 205.944 276.841 205.265L189.192 121.42C188.839 121.084 188.56 120.685 188.37 120.246C188.179 119.807 188.082 119.336 188.083 118.86V3.62506C188.081 3.13059 188.186 2.64106 188.392 2.18728C188.597 1.73349 188.898 1.32527 189.277 0.988277C189.656 0.647113 190.104 0.384064 190.594 0.215424C191.084 0.0467849 191.605 -0.0238479 192.125 0.00788065C260.354 4.09676 313.802 58.5768 313.802 124.037C313.804 153.771 302.66 182.52 282.394 205.066C282.053 205.443 281.635 205.75 281.165 205.966C280.695 206.183 280.183 206.305 279.662 206.324C279.615 206.326 279.568 206.326 279.522 206.326Z" fill="#FBDCDC"/>
<path d="M191.883 248.073C190.916 248.072 189.984 247.719 189.278 247.087C188.899 246.75 188.598 246.341 188.392 245.887C188.186 245.432 188.081 244.942 188.083 244.447V140.475C188.083 139.759 188.305 139.059 188.721 138.464C189.137 137.869 189.728 137.405 190.419 137.131C191.111 136.857 191.872 136.785 192.606 136.925C193.34 137.065 194.014 137.409 194.543 137.915L271.028 211.081C271.391 211.429 271.677 211.844 271.867 212.3C272.058 212.757 272.149 213.246 272.136 213.738C272.122 214.23 272.005 214.714 271.79 215.16C271.575 215.607 271.267 216.007 270.886 216.337C249.11 235.091 221.358 246.27 192.118 248.066C192.04 248.07 191.961 248.073 191.883 248.073Z" fill="#FA6464" fill-opacity="0.78"/>
<path d="M394.292 250.38C382.021 271.197 364.696 289.558 344.859 304.111C300.773 336.452 244.936 353.992 189.85 357.671C161.54 359.575 133.091 357.726 105.311 352.178C77.0472 346.514 50.0898 336.538 23.9822 324.885C-2.59926 313.018 -28.3671 299.559 -54.8328 287.47C-81.271 275.389 -108.443 265.088 -136.912 258.346C-134.828 257.995 -132.807 257.61 -130.839 257.173C-128.979 257.635 -127.124 258.115 -125.276 258.611C-69.6083 273.498 -20.4786 302.836 31.7903 325.501C58.0054 336.871 85.1414 346.146 113.521 351.108C141.837 356.026 170.735 357.109 199.366 354.325C254.3 349.038 310.183 329.65 352.416 294.965C369.133 281.296 383.063 264.788 393.505 246.273C393.792 247.642 394.051 249.011 394.292 250.38Z" fill="white"/>
<path d="M163.297 378.195H80.3027C79.1064 378.195 77.9591 377.741 77.1132 376.932C76.2673 376.122 75.7921 375.025 75.7921 373.881C75.7921 372.736 76.2673 371.639 77.1132 370.83C77.9591 370.02 79.1064 369.566 80.3027 369.566H163.297C164.493 369.566 165.64 370.02 166.486 370.83C167.332 371.639 167.807 372.736 167.807 373.881C167.807 375.025 167.332 376.122 166.486 376.932C165.64 377.741 164.493 378.195 163.297 378.195Z" fill="#CCCCCC"/>
<path d="M55.4946 382.51C53.6212 382.51 51.7899 381.979 50.2322 380.983C48.6745 379.987 47.4605 378.572 46.7436 376.917C46.0266 375.261 45.8391 373.439 46.2046 371.681C46.5701 369.924 47.4721 368.309 48.7968 367.042C50.1215 365.775 51.8093 364.912 53.6468 364.562C55.4842 364.213 57.3887 364.392 59.1195 365.078C60.8503 365.764 62.3297 366.925 63.3705 368.415C64.4113 369.905 64.9668 371.657 64.9668 373.449C64.9639 375.851 63.9651 378.155 62.1893 379.853C60.4136 381.552 58.0059 382.507 55.4946 382.51Z" fill="#3F3D56"/>
<path d="M163.297 404.084H80.3027C79.1064 404.084 77.9591 403.63 77.1132 402.82C76.2673 402.011 75.7921 400.914 75.7921 399.769C75.7921 398.625 76.2673 397.528 77.1132 396.718C77.9591 395.909 79.1064 395.455 80.3027 395.455H163.297C164.493 395.455 165.64 395.909 166.486 396.718C167.332 397.528 167.807 398.625 167.807 399.769C167.807 400.914 167.332 402.011 166.486 402.82C165.64 403.63 164.493 404.084 163.297 404.084Z" fill="#CCCCCC"/>
<path d="M55.4946 408.399C53.6212 408.399 51.7899 407.868 50.2322 406.872C48.6745 405.876 47.4604 404.461 46.7435 402.805C46.0266 401.15 45.839 399.328 46.2045 397.57C46.5699 395.812 47.4721 394.198 48.7968 392.931C50.1215 391.664 51.8093 390.801 53.6467 390.451C55.4841 390.101 57.3887 390.281 59.1195 390.967C60.8503 391.652 62.3296 392.814 63.3705 394.304C64.4113 395.794 64.9668 397.546 64.9668 399.338C64.9639 401.74 63.9651 404.043 62.1893 405.742C60.4136 407.441 58.0059 408.396 55.4946 408.399Z" fill="#3F3D56"/>
<path d="M163.297 429.973H80.3027C79.1064 429.973 77.9591 429.518 77.1132 428.709C76.2673 427.9 75.7921 426.803 75.7921 425.658C75.7921 424.514 76.2673 423.416 77.1132 422.607C77.9591 421.798 79.1064 421.343 80.3027 421.343H163.297C164.493 421.343 165.64 421.798 166.486 422.607C167.332 423.416 167.807 424.514 167.807 425.658C167.807 426.803 167.332 427.9 166.486 428.709C165.64 429.518 164.493 429.973 163.297 429.973Z" fill="#CCCCCC"/>
<path d="M55.4946 434.288C53.6212 434.288 51.7899 433.756 50.2322 432.761C48.6745 431.765 47.4605 430.35 46.7436 428.694C46.0266 427.039 45.8391 425.217 46.2046 423.459C46.5701 421.701 47.4721 420.087 48.7968 418.82C50.1215 417.552 51.8093 416.689 53.6468 416.34C55.4842 415.99 57.3887 416.17 59.1195 416.855C60.8503 417.541 62.3297 418.703 63.3705 420.193C64.4113 421.683 64.9668 423.435 64.9668 425.227C64.9639 427.629 63.9651 429.932 62.1893 431.631C60.4136 433.33 58.0059 434.285 55.4946 434.288Z" fill="#3F3D56"/>
<path d="M187.142 399.653H221.422C221.662 399.653 221.891 399.562 222.06 399.4C222.229 399.238 222.324 399.019 222.324 398.79V196.063C222.324 195.834 222.229 195.615 222.06 195.453C221.891 195.291 221.662 195.2 221.422 195.2C221.183 195.2 220.954 195.291 220.784 195.453C220.615 195.615 220.52 195.834 220.52 196.063V397.927H187.142C187.023 397.927 186.906 397.949 186.796 397.992C186.686 398.035 186.586 398.099 186.502 398.179C186.418 398.259 186.351 398.354 186.306 398.459C186.26 398.564 186.237 398.677 186.237 398.79C186.237 398.904 186.26 399.016 186.306 399.121C186.351 399.226 186.418 399.321 186.502 399.401C186.586 399.481 186.686 399.545 186.796 399.588C186.906 399.631 187.023 399.653 187.142 399.653Z" fill="#3F3D56"/>
<path d="M334.034 63.5627C331.741 63.7394 329.446 63.2618 327.437 62.1905C325.429 61.1191 323.797 59.5021 322.75 57.5438C321.702 55.5856 321.285 53.3741 321.551 51.189C321.817 49.004 322.754 46.9435 324.245 45.268C325.735 43.5926 327.711 42.3776 329.923 41.7765C332.135 41.1755 334.484 41.2155 336.673 41.8914C338.861 42.5674 340.791 43.8489 342.218 45.5739C343.645 47.299 344.505 49.3901 344.69 51.5829C344.937 54.5233 343.954 57.4373 341.955 59.6839C339.957 61.9306 337.107 63.3258 334.034 63.5627ZM333.89 61.8571C335.829 61.7076 337.679 61.0113 339.205 59.8562C340.731 58.7011 341.864 57.1392 342.462 55.3678C343.06 53.5964 343.096 51.6952 342.564 49.9046C342.032 48.1141 340.958 46.5145 339.476 45.3082C337.994 44.1019 336.171 43.3431 334.238 43.1278C332.305 42.9124 330.349 43.2501 328.617 44.0982C326.885 44.9463 325.455 46.2668 324.507 47.8925C323.559 49.5182 323.137 51.3763 323.293 53.2317C323.397 54.4636 323.753 55.664 324.342 56.7642C324.931 57.8644 325.74 58.8429 326.724 59.6438C327.708 60.4448 328.847 61.0524 330.077 61.4322C331.306 61.812 332.602 61.9564 333.89 61.8571V61.8571Z" fill="#CCCCCC"/>
<path d="M279.4 282.491C278.132 284.326 276.324 285.761 274.204 286.613C272.084 287.465 269.747 287.697 267.49 287.279C265.232 286.861 263.155 285.812 261.52 284.264C259.886 282.717 258.768 280.74 258.307 278.585C257.847 276.43 258.065 274.192 258.934 272.155C259.803 270.119 261.284 268.374 263.19 267.143C265.095 265.911 267.34 265.248 269.639 265.236C271.939 265.225 274.191 265.866 276.109 267.079C278.679 268.708 280.469 271.245 281.086 274.134C281.703 277.023 281.097 280.028 279.4 282.491ZM261.491 271.171C260.418 272.724 259.851 274.546 259.861 276.407C259.871 278.269 260.458 280.086 261.547 281.628C262.637 283.17 264.18 284.369 265.981 285.072C267.783 285.776 269.762 285.953 271.668 285.58C273.575 285.207 275.323 284.302 276.692 282.979C278.061 281.656 278.989 279.975 279.358 278.147C279.728 276.32 279.523 274.429 278.769 272.713C278.015 270.997 276.747 269.533 275.123 268.507C272.945 267.134 270.287 266.643 267.731 267.142C265.176 267.642 262.931 269.09 261.491 271.171Z" fill="#CCCCCC"/>
<path d="M293.329 323.397C297.281 323.397 300.485 320.332 300.485 316.552C300.485 312.772 297.281 309.707 293.329 309.707C289.378 309.707 286.174 312.772 286.174 316.552C286.174 320.332 289.378 323.397 293.329 323.397Z" fill="#CCCCCC"/>
<path d="M313.288 355.216C315.364 355.216 317.047 353.607 317.047 351.621C317.047 349.635 315.364 348.025 313.288 348.025C311.213 348.025 309.53 349.635 309.53 351.621C309.53 353.607 311.213 355.216 313.288 355.216Z" fill="#CCCCCC"/>
<path d="M-9.31043 95.6844C-10.3338 93.7144 -10.7235 91.4983 -10.4303 89.3164C-10.1371 87.1345 -9.17416 85.0848 -7.66317 83.4265C-6.15219 81.7681 -4.16101 80.5756 -1.94154 79.9998C0.277922 79.4239 2.62604 79.4906 4.80588 80.1914C6.98573 80.8922 8.8994 82.1956 10.3049 83.9367C11.7104 85.6779 12.5446 87.7786 12.7019 89.9733C12.8593 92.168 12.3328 94.3581 11.1891 96.2665C10.0453 98.175 8.33569 99.7162 6.27631 100.695C3.51418 102.005 0.321848 102.212 -2.60024 101.273C-5.52234 100.334 -7.93552 98.3237 -9.31043 95.6844ZM9.91249 86.5463C9.04655 84.8794 7.68331 83.4955 5.9952 82.5697C4.30708 81.6439 2.36989 81.2178 0.428589 81.3452C-1.51271 81.4726 -3.37088 82.1478 -4.91102 83.2854C-6.45116 84.4231 -7.60404 85.9721 -8.2239 87.7365C-8.84376 89.5009 -8.90277 91.4016 -8.39342 93.1981C-7.88407 94.9946 -6.82928 96.6063 -5.3624 97.8293C-3.89552 99.0524 -2.08249 99.8319 -0.152509 100.069C1.77747 100.307 3.73771 99.9911 5.48027 99.1627C7.81483 98.0498 9.59256 96.0964 10.4235 93.7312C11.2544 91.366 11.0706 88.7821 9.91249 86.5463Z" fill="#CCCCCC"/>
</g>
<defs>
<clipPath id="clip0_11_50">
<rect width="742" height="576" fill="white" transform="translate(-329)"/>
</clipPath>
</defs>
</svg>
