<svg width="128" height="131" viewBox="0 0 128 131" fill="none" xmlns="http://www.w3.org/2000/svg">
<path d="M63.3322 129.757C97.5261 129.757 125.246 101.96 125.246 67.671C125.246 33.3821 97.5261 5.58525 63.3322 5.58525C29.138 5.58525 1.41821 33.3821 1.41821 67.671C1.41821 101.96 29.138 129.757 63.3322 129.757Z" fill="#FBD947"/>
<path d="M62.4686 5.62826C62.1033 27.949 55.4651 77.2524 5.43122 89.6695C2.77277 82.648 1.41863 75.2003 1.43539 67.6925C1.42524 64.9257 1.6119 62.1619 1.99395 59.4215C3.67535 46.7178 9.25314 34.8476 17.9595 25.4448C26.6659 16.0421 38.0727 9.56924 50.61 6.91724C54.5102 6.09489 58.4826 5.6631 62.4686 5.62826Z" fill="#FBE481"/>
<path opacity="0.5" d="M124.148 66.9408C124.171 83.375 117.67 99.1463 106.074 110.791C94.4773 122.436 78.7331 129.002 62.2988 129.048C54.7321 129.068 47.2279 127.677 40.1714 124.945C91.8809 105.846 103.804 60.9256 101.183 18.6901C108.365 24.5124 114.155 31.8669 118.129 40.2151C122.102 48.5636 124.159 57.695 124.148 66.9408Z" fill="#F8A547"/>
<path d="M24.404 55.9845H24.1677C24.0884 55.9536 24.0162 55.9074 23.955 55.8485C23.8938 55.7896 23.8448 55.7194 23.8108 55.6414C23.7769 55.5636 23.7586 55.4799 23.7571 55.3948C23.7558 55.3099 23.7711 55.2255 23.8025 55.1466L27.3042 46.8328C27.3706 46.6768 27.4956 46.5533 27.6524 46.4888C27.8092 46.4246 27.9852 46.4246 28.142 46.489C28.2943 46.5595 28.4144 46.6852 28.4782 46.8405C28.5418 46.9958 28.5446 47.1696 28.4857 47.3269L24.984 55.6408C24.9249 55.743 24.8405 55.8283 24.7389 55.8885C24.6373 55.9488 24.5219 55.9817 24.404 55.9845Z" fill="#3E3126"/>
<path d="M29.0697 51.967H28.8333C28.7543 51.9362 28.6821 51.89 28.6209 51.8312C28.5596 51.7723 28.5107 51.7019 28.4767 51.6241C28.4428 51.5463 28.4245 51.4623 28.423 51.3775C28.4215 51.2926 28.437 51.2082 28.4681 51.1291L30.3371 46.6822C30.3677 46.6031 30.4141 46.5311 30.4733 46.4705C30.5326 46.41 30.6037 46.3621 30.6822 46.3298C30.7606 46.2978 30.8448 46.2819 30.9294 46.2834C31.0143 46.2849 31.0979 46.3036 31.175 46.3384C31.3309 46.405 31.4545 46.5301 31.5189 46.6869C31.5832 46.8437 31.5832 47.0197 31.5187 47.1763L29.6712 51.4729C29.6327 51.6065 29.5545 51.7251 29.4471 51.8134C29.3399 51.9016 29.2082 51.9551 29.0697 51.967Z" fill="#3E3126"/>
<path d="M63.3294 129.929C50.9984 129.971 38.9323 126.353 28.6587 119.534C18.3853 112.714 10.3666 102.999 5.61826 91.6185C0.869927 80.2385 -0.394525 67.7051 1.98504 55.606C4.36461 43.5068 10.2811 32.3857 18.9854 23.6514C27.6896 14.9169 38.7903 8.962 50.8811 6.54066C62.9721 4.11931 75.5096 5.34047 86.906 10.0495C98.3025 14.7585 108.045 22.7435 114.9 32.9934C121.756 43.2432 125.415 55.297 125.415 67.628C125.415 84.1138 118.881 99.9279 107.244 111.605C95.6066 123.283 79.8154 129.872 63.3294 129.929ZM63.3294 10.3974C51.9894 10.3634 40.8943 13.6953 31.4491 19.9712C22.0039 26.2471 14.6335 35.1847 10.2713 45.652C5.90901 56.1196 4.75108 67.6463 6.94413 78.7723C9.13715 89.8983 14.5825 100.123 22.5906 108.153C30.5988 116.182 40.8094 121.654 51.9297 123.876C63.0499 126.099 74.5796 124.971 85.0585 120.636C95.5375 116.302 104.494 108.955 110.795 99.5259C117.096 90.0973 120.457 79.011 120.453 67.671C120.453 52.507 114.439 37.962 103.731 27.2255C93.0225 16.4889 78.4933 10.4372 63.3294 10.3974Z" fill="#F8A547"/>
<path d="M1.41772 68.9172C1.25509 68.9172 1.09409 68.885 0.944102 68.822C0.794119 68.7591 0.658162 68.6672 0.544167 68.5511C0.430174 68.4351 0.340429 68.2974 0.28017 68.1464C0.21991 67.9954 0.190344 67.8338 0.193197 67.6712C0.193539 63.3933 0.618116 59.1259 1.46069 54.9318C1.49138 54.7716 1.5538 54.619 1.64429 54.4833C1.73477 54.3475 1.8515 54.231 1.9876 54.141C2.12369 54.051 2.27642 53.9889 2.43681 53.9589C2.5972 53.9286 2.762 53.9307 2.92153 53.9651C3.08181 53.9958 3.23436 54.0583 3.37018 54.1488C3.50599 54.2392 3.62237 54.3559 3.71242 54.4921C3.8025 54.628 3.86446 54.7808 3.89464 54.9413C3.92485 55.1017 3.92268 55.2665 3.88826 55.4259C3.0706 59.4563 2.66036 63.5587 2.66373 67.6712C2.66373 67.8349 2.63151 67.9969 2.56889 68.1481C2.50626 68.2994 2.41449 68.4366 2.29878 68.5524C2.18309 68.668 2.04573 68.7597 1.89455 68.8225C1.74338 68.885 1.58135 68.9172 1.41772 68.9172Z" fill="#3E3126"/>
<path d="M63.3317 130.96C48.3933 130.996 33.9282 125.723 22.5171 116.083C11.106 106.442 3.49109 93.061 1.03111 78.3265C1.01329 78.1628 1.02811 77.9972 1.07474 77.8391C1.12137 77.681 1.19887 77.5338 1.30276 77.406C1.40665 77.2782 1.53487 77.1723 1.67999 77.0943C1.82511 77.0163 1.98426 76.9677 2.14823 76.9516C2.30802 76.9209 2.47239 76.9231 2.63138 76.9576C2.79035 76.9922 2.94067 77.0588 3.07322 77.1531C3.20577 77.2475 3.31778 77.3678 3.40251 77.5068C3.48722 77.6457 3.54288 77.8004 3.5661 77.9613C6.0656 92.3927 13.689 105.437 25.0356 114.699C36.382 123.96 50.6897 128.815 65.3292 128.373C79.9688 127.93 93.957 122.22 104.724 112.29C115.49 102.361 122.312 88.8798 123.936 74.3238C125.559 59.7678 121.875 45.115 113.561 33.0572C105.247 20.9998 92.8605 12.3475 78.6781 8.69046C64.4957 5.03337 49.4701 6.61709 36.3618 13.1506C23.2536 19.6841 12.9434 30.7287 7.32562 44.2546C7.18506 44.5362 6.94309 44.7543 6.64837 44.8649C6.35362 44.9755 6.02796 44.9704 5.73683 44.8507C5.44569 44.7309 5.21065 44.5055 5.07895 44.2196C4.94726 43.9336 4.92868 43.6084 5.02694 43.3093C9.44912 32.767 16.648 23.6213 25.8569 16.8466C35.0658 10.072 45.9398 5.92195 57.3206 4.83856C68.7016 3.7552 80.1632 5.77904 90.4849 10.6946C100.807 15.6101 109.602 23.2331 115.934 32.752C122.265 42.2706 125.897 53.3288 126.441 64.748C126.985 76.1675 124.422 87.5208 119.024 97.5985C113.626 107.676 105.596 116.101 95.7886 121.976C85.9812 127.851 74.7641 130.956 63.3317 130.96Z" fill="#3E3126"/>
<path d="M1.28898 74.1163C2.00086 74.1163 2.57795 73.5393 2.57795 72.8273C2.57795 72.1154 2.00086 71.5384 1.28898 71.5384C0.577094 71.5384 0 72.1154 0 72.8273C0 73.5393 0.577094 74.1163 1.28898 74.1163Z" fill="#3E3126"/>
<path d="M63.3354 117.941C53.3866 117.971 43.6527 115.048 35.3661 109.543C27.0795 104.037 20.6127 96.1963 16.7848 87.0132C12.957 77.8303 11.94 67.7178 13.8626 57.9566C15.7853 48.1952 20.5612 39.2239 27.5856 32.1786C34.6099 25.133 43.567 20.3303 53.3224 18.3784C63.078 16.4265 73.1933 17.4132 82.3878 21.2136C91.582 25.014 99.4422 31.457 104.973 39.7273C110.503 47.9973 113.455 57.7224 113.455 67.6712C113.455 80.9777 108.18 93.7414 98.7846 103.164C89.3897 112.588 76.6419 117.902 63.3354 117.941ZM63.3354 22.3851C54.3654 22.3469 45.586 24.9721 38.1093 29.9282C30.6325 34.8844 24.7954 41.9482 21.3371 50.2249C17.8788 58.5016 16.9552 67.6186 18.6833 76.4206C20.4113 85.2228 24.7131 93.3137 31.0439 99.6688C37.3747 106.024 45.4493 110.356 54.2449 112.118C63.0404 113.879 72.1608 112.99 80.4504 109.564C88.7403 106.137 95.8262 100.326 100.811 92.8686C105.795 85.411 108.454 76.6414 108.45 67.6712C108.45 55.6904 103.702 44.1976 95.2464 35.7097C86.7909 27.222 75.3162 22.4307 63.3354 22.3851Z" fill="#F8A547"/>
<path d="M28.7206 103.848C28.5897 103.851 28.4598 103.828 28.3379 103.78C28.2163 103.732 28.1053 103.66 28.0116 103.569C22.0071 97.6184 17.5923 90.2556 15.1719 82.1559C12.7516 74.0561 12.403 65.4782 14.1582 57.2088C15.9135 48.9394 19.7163 41.2427 25.2182 34.8244C30.7202 28.4062 37.7451 23.4715 45.6491 20.4731C45.8889 20.4031 46.1462 20.4264 46.3694 20.5385C46.5926 20.6506 46.7652 20.843 46.8522 21.0771C46.9394 21.3111 46.9344 21.5694 46.8388 21.8002C46.7432 22.0309 46.5636 22.2169 46.3366 22.3205C38.7378 25.1988 31.984 29.9398 26.6947 36.1082C21.4056 42.2766 17.7507 49.6747 16.0655 57.6236C14.3804 65.5725 14.719 73.8173 17.0503 81.6012C19.3816 89.3851 23.6308 96.4588 29.408 102.173C29.593 102.358 29.6967 102.609 29.6967 102.871C29.6967 103.133 29.593 103.384 29.408 103.569C29.3174 103.659 29.2101 103.729 29.092 103.777C28.9741 103.825 28.8477 103.849 28.7206 103.848Z" fill="#3E3126"/>
<path d="M63.3324 118.07C54.1869 118.087 45.2115 115.598 37.381 110.874C37.156 110.74 36.9934 110.522 36.929 110.268C36.8645 110.014 36.9034 109.745 37.0372 109.52C37.1754 109.294 37.3969 109.131 37.6542 109.066C37.9114 109.002 38.1836 109.042 38.4122 109.176C44.8076 113.006 52.0012 115.306 59.4317 115.898C66.8625 116.49 74.3295 115.358 81.2507 112.589C88.1718 109.821 94.36 105.492 99.3329 99.9386C104.306 94.3855 107.929 87.7588 109.919 80.5754C111.91 73.3919 112.214 65.8456 110.809 58.5251C109.404 51.2045 106.327 44.3074 101.817 38.3717C97.3083 32.436 91.4892 27.6218 84.8136 24.3049C78.138 20.9878 70.7865 19.2575 63.3324 19.2488C60.7491 19.2517 58.17 19.4601 55.62 19.8718C55.4915 19.8933 55.3601 19.8892 55.2333 19.8598C55.1066 19.8304 54.9867 19.7762 54.881 19.7003C54.7751 19.6244 54.6853 19.5284 54.6167 19.4178C54.5482 19.3071 54.5022 19.184 54.4814 19.0555C54.4599 18.9271 54.464 18.7957 54.4934 18.6689C54.5229 18.5421 54.577 18.4223 54.6528 18.3165C54.7287 18.2107 54.8247 18.1209 54.9353 18.0524C55.046 17.9838 55.1691 17.9377 55.2978 17.9169C57.9561 17.505 60.6421 17.2967 63.3324 17.2939C76.5216 17.5662 89.0788 22.9968 98.3103 32.4209C107.542 41.8448 112.712 54.5116 112.712 67.7037C112.712 80.8957 107.542 93.5625 98.3103 102.986C89.0788 112.411 76.5216 117.841 63.3324 118.113V118.07Z" fill="#3E3126"/>
<path d="M50.7838 21.096C51.4955 21.096 52.0727 20.5189 52.0727 19.807C52.0727 19.0951 51.4955 18.518 50.7838 18.518C50.0718 18.518 49.4948 19.0951 49.4948 19.807C49.4948 20.5189 50.0718 21.096 50.7838 21.096Z" fill="#3E3126"/>
<path d="M32.9763 108.231C33.6883 108.231 34.2653 107.654 34.2653 106.942C34.2653 106.23 33.6883 105.653 32.9763 105.653C32.2644 105.653 31.6874 106.23 31.6874 106.942C31.6874 107.654 32.2644 108.231 32.9763 108.231Z" fill="#3E3126"/>
<path d="M63.3354 117.941C53.3866 117.971 43.6527 115.048 35.3661 109.543C27.0795 104.037 20.6127 96.1963 16.7848 87.0132C12.957 77.8303 11.94 67.7178 13.8626 57.9566C15.7853 48.1952 20.5612 39.2239 27.5856 32.1786C34.6099 25.133 43.567 20.3303 53.3224 18.3784C63.078 16.4265 73.1933 17.4132 82.3878 21.2136C91.582 25.014 99.4422 31.457 104.973 39.7273C110.503 47.9973 113.455 57.7224 113.455 67.6712C113.455 80.9777 108.18 93.7414 98.7846 103.164C89.3897 112.588 76.6419 117.902 63.3354 117.941ZM63.3354 22.3851C54.3654 22.3469 45.586 24.9721 38.1093 29.9282C30.6325 34.8844 24.7954 41.9482 21.3371 50.2249C17.8788 58.5016 16.9552 67.6186 18.6833 76.4206C20.4113 85.2228 24.7131 93.3137 31.0439 99.6688C37.3747 106.024 45.4493 110.356 54.2449 112.118C63.0404 113.879 72.1608 112.99 80.4504 109.564C88.7403 106.137 95.8262 100.326 100.811 92.8686C105.795 85.411 108.454 76.6414 108.45 67.6712C108.45 55.6904 103.702 44.1976 95.2464 35.7097C86.7909 27.222 75.3162 22.4307 63.3354 22.3851Z" fill="#F8A547"/>
<path d="M28.7206 103.848C28.5897 103.851 28.4598 103.828 28.3379 103.78C28.2163 103.732 28.1053 103.66 28.0116 103.569C22.0071 97.6184 17.5923 90.2556 15.1719 82.1559C12.7516 74.0561 12.403 65.4782 14.1582 57.2088C15.9135 48.9394 19.7163 41.2427 25.2182 34.8244C30.7202 28.4062 37.7451 23.4715 45.6491 20.4731C45.8889 20.4031 46.1462 20.4264 46.3694 20.5385C46.5926 20.6506 46.7652 20.843 46.8522 21.0771C46.9394 21.3111 46.9344 21.5694 46.8388 21.8002C46.7432 22.0309 46.5636 22.2169 46.3366 22.3205C38.7378 25.1988 31.984 29.9398 26.6947 36.1082C21.4056 42.2766 17.7507 49.6747 16.0655 57.6236C14.3804 65.5725 14.719 73.8173 17.0503 81.6012C19.3816 89.3851 23.6308 96.4588 29.408 102.173C29.593 102.358 29.6967 102.609 29.6967 102.871C29.6967 103.133 29.593 103.384 29.408 103.569C29.3174 103.659 29.2101 103.729 29.092 103.777C28.9741 103.825 28.8477 103.849 28.7206 103.848Z" fill="#3E3126"/>
<path d="M63.3324 118.07C54.1869 118.087 45.2115 115.598 37.381 110.874C37.156 110.74 36.9934 110.522 36.929 110.268C36.8645 110.014 36.9034 109.745 37.0372 109.52C37.1754 109.294 37.3969 109.131 37.6542 109.066C37.9114 109.002 38.1836 109.042 38.4122 109.176C44.8076 113.006 52.0012 115.306 59.4317 115.898C66.8625 116.49 74.3295 115.358 81.2507 112.589C88.1718 109.821 94.36 105.492 99.3329 99.9386C104.306 94.3855 107.929 87.7588 109.919 80.5754C111.91 73.3919 112.214 65.8456 110.809 58.5251C109.404 51.2045 106.327 44.3074 101.817 38.3717C97.3083 32.436 91.4892 27.6218 84.8136 24.3049C78.138 20.9878 70.7865 19.2575 63.3324 19.2488C60.7491 19.2517 58.17 19.4601 55.62 19.8718C55.4915 19.8933 55.3601 19.8892 55.2333 19.8598C55.1066 19.8304 54.9867 19.7762 54.881 19.7003C54.7751 19.6244 54.6853 19.5284 54.6167 19.4178C54.5482 19.3071 54.5022 19.184 54.4814 19.0555C54.4599 18.9271 54.464 18.7957 54.4934 18.6689C54.5229 18.5421 54.577 18.4223 54.6528 18.3165C54.7287 18.2107 54.8247 18.1209 54.9353 18.0524C55.046 17.9838 55.1691 17.9377 55.2978 17.9169C57.9561 17.505 60.6421 17.2967 63.3324 17.2939C76.5216 17.5662 89.0788 22.9968 98.3103 32.4209C107.542 41.8448 112.712 54.5116 112.712 67.7037C112.712 80.8957 107.542 93.5625 98.3103 102.986C89.0788 112.411 76.5216 117.841 63.3324 118.113V118.07Z" fill="#3E3126"/>
<path d="M50.7838 21.096C51.4955 21.096 52.0727 20.5189 52.0727 19.807C52.0727 19.0951 51.4955 18.518 50.7838 18.518C50.0718 18.518 49.4948 19.0951 49.4948 19.807C49.4948 20.5189 50.0718 21.096 50.7838 21.096Z" fill="#3E3126"/>
<path d="M32.9763 108.231C33.6883 108.231 34.2653 107.654 34.2653 106.942C34.2653 106.23 33.6883 105.653 32.9763 105.653C32.2644 105.653 31.6874 106.23 31.6874 106.942C31.6874 107.654 32.2644 108.231 32.9763 108.231Z" fill="#3E3126"/>
<path d="M4.16735 50.4421C4.87923 50.4421 5.45633 49.8648 5.45633 49.1531C5.45633 48.4412 4.87923 47.8641 4.16735 47.8641C3.45547 47.8641 2.87837 48.4412 2.87837 49.1531C2.87837 49.8648 3.45547 50.4421 4.16735 50.4421Z" fill="#3E3126"/>
<path d="M34.7946 23.7635C35.8359 22.8818 36.2452 21.6534 35.7085 21.0195C35.1719 20.3856 33.8926 20.5864 32.8513 21.468C31.8098 22.3497 31.4008 23.5781 31.9372 24.2121C32.4738 24.846 33.7532 24.6452 34.7946 23.7635Z" fill="white"/>
<path d="M18.3256 39.1418C18.0989 39.1466 17.8755 39.0869 17.6811 38.97C17.4029 38.793 17.2046 38.5143 17.1284 38.1936C17.0521 37.8726 17.104 37.5347 17.273 37.2513C20.3666 32.6357 24.1483 28.5207 28.487 25.049C28.6108 24.9246 28.7594 24.8278 28.9234 24.7648C29.0873 24.7019 29.2624 24.6742 29.4377 24.6836C29.613 24.6931 29.7842 24.7395 29.9404 24.8198C30.0963 24.8999 30.2338 25.0123 30.3434 25.1494C30.4532 25.2864 30.5324 25.4452 30.5767 25.6151C30.6207 25.785 30.6282 25.9623 30.599 26.1352C30.5698 26.3084 30.5043 26.4734 30.407 26.6192C30.3097 26.7653 30.1825 26.889 30.0338 26.9825C25.8934 30.2776 22.2851 34.1902 19.3353 38.5833C19.2259 38.7521 19.0765 38.8916 18.9004 38.9889C18.7243 39.0864 18.5269 39.1388 18.3256 39.1418Z" fill="white"/>
<path opacity="0.4" d="M81.6316 95.234C82.2365 95.234 82.7272 94.7436 82.7272 94.1384C82.7272 93.5332 82.2365 93.0428 81.6316 93.0428C81.0264 93.0428 80.5359 93.5332 80.5359 94.1384C80.5359 94.7436 81.0264 95.234 81.6316 95.234Z" fill="#F8A547"/>
<path d="M82.2992 110.916C84.3992 110.916 86.1017 109.214 86.1017 107.114C86.1017 105.014 84.3992 103.311 82.2992 103.311C80.1991 103.311 78.4968 105.014 78.4968 107.114C78.4968 109.214 80.1991 110.916 82.2992 110.916Z" fill="#F8A547"/>
<path d="M84.8327 100.282C85.5329 100.282 86.1002 99.715 86.1002 99.0148C86.1002 98.3149 85.5329 97.7473 84.8327 97.7473C84.1328 97.7473 83.5652 98.3149 83.5652 99.0148C83.5652 99.715 84.1328 100.282 84.8327 100.282Z" fill="#F8A547"/>
<path d="M73.4955 110.079C74.1955 110.079 74.763 109.511 74.763 108.811C74.763 108.111 74.1955 107.544 73.4955 107.544C72.7954 107.544 72.228 108.111 72.228 108.811C72.228 109.511 72.7954 110.079 73.4955 110.079Z" fill="#F8A547"/>
<path d="M91.7547 104.643C92.6207 104.643 93.323 103.941 93.323 103.075C93.323 102.209 92.6207 101.507 91.7547 101.507C90.8886 101.507 90.1865 102.209 90.1865 103.075C90.1865 103.941 90.8886 104.643 91.7547 104.643Z" fill="#F8A547"/>
<path opacity="0.4" d="M74.5237 105.137C75.1289 105.137 75.6193 104.647 75.6193 104.042C75.6193 103.437 75.1289 102.946 74.5237 102.946C73.9185 102.946 73.4281 103.437 73.4281 104.042C73.4281 104.647 73.9185 105.137 74.5237 105.137Z" fill="#F8A547"/>
<path opacity="0.4" d="M77.831 101.979C78.4598 101.979 78.9696 101.47 78.9696 100.841C78.9696 100.212 78.4598 99.7023 77.831 99.7023C77.2022 99.7023 76.6924 100.212 76.6924 100.841C76.6924 101.47 77.2022 101.979 77.831 101.979Z" fill="#F8A547"/>
<path opacity="0.4" d="M77.7264 96.5445C77.9636 96.5445 78.156 96.352 78.156 96.1148C78.156 95.8775 77.9636 95.6852 77.7264 95.6852C77.489 95.6852 77.2967 95.8775 77.2967 96.1148C77.2967 96.352 77.489 96.5445 77.7264 96.5445Z" fill="#F8A547"/>
<path d="M79.2502 125.138C80.496 125.138 81.5059 124.128 81.5059 122.882C81.5059 121.636 80.496 120.626 79.2502 120.626C78.0044 120.626 76.9945 121.636 76.9945 122.882C76.9945 124.128 78.0044 125.138 79.2502 125.138Z" fill="#F8A547"/>
<path d="M80.801 119.768C81.2163 119.768 81.5529 119.431 81.5529 119.016C81.5529 118.6 81.2163 118.264 80.801 118.264C80.3858 118.264 80.0491 118.6 80.0491 119.016C80.0491 119.431 80.3858 119.768 80.801 119.768Z" fill="#F8A547"/>
<path d="M74.0541 125.589C74.4694 125.589 74.806 125.253 74.806 124.838C74.806 124.422 74.4694 124.085 74.0541 124.085C73.6388 124.085 73.3022 124.422 73.3022 124.838C73.3022 125.253 73.6388 125.589 74.0541 125.589Z" fill="#F8A547"/>
<path d="M84.9255 122.345C85.4355 122.345 85.8493 121.932 85.8493 121.421C85.8493 120.911 85.4355 120.498 84.9255 120.498C84.4153 120.498 84.0018 120.911 84.0018 121.421C84.0018 121.932 84.4153 122.345 84.9255 122.345Z" fill="#F8A547"/>
<path opacity="0.4" d="M74.6515 122.646C75.0075 122.646 75.296 122.358 75.296 122.002C75.296 121.646 75.0075 121.357 74.6515 121.357C74.2956 121.357 74.007 121.646 74.007 122.002C74.007 122.358 74.2956 122.646 74.6515 122.646Z" fill="#F8A547"/>
<path opacity="0.4" d="M76.6331 120.777C77.0127 120.777 77.3206 120.469 77.3206 120.089C77.3206 119.71 77.0127 119.402 76.6331 119.402C76.2533 119.402 75.9457 119.71 75.9457 120.089C75.9457 120.469 76.2533 120.777 76.6331 120.777Z" fill="#F8A547"/>
<path opacity="0.4" d="M76.5642 117.555C76.7066 117.555 76.822 117.439 76.822 117.297C76.822 117.154 76.7066 117.039 76.5642 117.039C76.4219 117.039 76.3064 117.154 76.3064 117.297C76.3064 117.439 76.4219 117.555 76.5642 117.555Z" fill="#F8A547"/>
<path d="M65.6775 114.311C66.4487 114.311 67.0739 113.685 67.0739 112.914C67.0739 112.143 66.4487 111.518 65.6775 111.518C64.9062 111.518 64.2811 112.143 64.2811 112.914C64.2811 113.685 64.9062 114.311 65.6775 114.311Z" fill="#F8A547"/>
<path d="M42.3571 40.738C44.5954 37.5177 44.6435 33.679 42.4643 32.1642C40.2848 30.6492 36.7034 32.0319 34.4651 35.2521C32.2266 38.4724 32.1785 42.311 34.3579 43.826C36.5371 45.3408 40.1186 43.9583 42.3571 40.738Z" fill="#FFEFAE"/>
<path d="M78.4145 72.9558C77.733 71.4423 76.7708 70.0717 75.5787 68.917C74.4103 67.8139 73.1033 66.868 71.6903 66.1027C70.3457 65.4211 68.9527 64.8393 67.5226 64.3626C65.6321 63.6322 63.849 62.9018 62.1949 62.2143C60.7005 61.6001 59.326 60.7275 58.1346 59.6364C57.6125 59.1408 57.2027 58.5395 56.9322 57.8724C56.6617 57.2056 56.5369 56.4885 56.5663 55.7694C56.5356 54.7221 56.7801 53.6852 57.2753 52.7618C57.772 51.9087 58.523 51.2327 59.4236 50.8284C60.6588 50.3347 61.9824 50.1007 63.312 50.1409C64.7139 50.1052 66.0981 50.4623 67.3078 51.1721C68.4496 51.8645 69.4486 52.7687 70.251 53.836C71.0697 54.9823 71.7885 56.1969 72.3993 57.4666L78.8871 53.6211C78.0564 51.8666 76.9704 50.2451 75.6647 48.809C74.2124 47.23 72.4691 45.9461 70.5302 45.028C69.2868 44.4202 67.963 43.9933 66.5989 43.7605V36.1555H60.154L60.3044 43.696C58.6386 43.9263 57.0166 44.4043 55.4922 45.1139C53.3847 46.0682 51.5576 47.5477 50.1859 49.4105C48.9145 51.157 48.2367 53.2654 48.2524 55.4257C48.1923 57.4221 48.6123 59.4039 49.477 61.2046C50.2503 62.7295 51.3077 64.093 52.592 65.2219C53.8066 66.3021 55.1573 67.2194 56.6093 67.9503C57.8721 68.5771 59.1703 69.1295 60.4977 69.6045C62.3023 70.2919 63.9994 71.0008 65.6106 71.7528C67.0827 72.4308 68.4101 73.3863 69.5205 74.567C70.5612 75.7505 71.1073 77.2887 71.0458 78.8636C71.0793 80.0765 70.8138 81.2792 70.2724 82.3653C69.7403 83.3203 68.9104 84.0747 67.9093 84.5136C66.636 85.0627 65.256 85.3197 63.8705 85.2655C62.1659 85.2995 60.4807 84.9003 58.9724 84.1054C57.4686 83.273 56.1465 82.1481 55.084 80.7971C53.8045 79.165 52.7159 77.3918 51.8401 75.5123L45.7604 79.6155C46.7385 81.9932 48.1356 84.1761 49.8851 86.0604C51.6285 87.9402 53.7136 89.4712 56.0292 90.5718C57.399 91.2011 58.8427 91.6556 60.3258 91.9252L60.154 99.208H66.5989L66.47 92.1186C68.4522 91.953 70.3917 91.4518 72.2059 90.6363C74.4384 89.6092 76.3154 87.9417 77.5981 85.8456C78.8918 83.656 79.5466 81.1481 79.4886 78.6058C79.5421 76.667 79.1756 74.7395 78.4145 72.9558Z" fill="white"/>
<path d="M99.7019 54.6311C114.616 54.6311 126.706 42.5024 126.706 27.5411C126.706 12.5797 114.616 0.451057 99.7019 0.451057C84.788 0.451057 72.6979 12.5797 72.6979 27.5411C72.6979 42.5024 84.788 54.6311 99.7019 54.6311Z" fill="#FBD947"/>
<path d="M99.3367 0.472561C99.1649 10.2043 96.2647 31.7087 74.438 37.1225C73.2859 34.0594 72.6964 30.8136 72.6979 27.5411C72.7252 26.3314 72.8401 25.1251 73.0416 23.9319C73.7654 18.4011 76.1841 13.2301 79.9656 9.12952C83.7468 5.02888 88.7052 2.19985 94.1593 1.03112C95.8619 0.669779 97.5966 0.48263 99.3367 0.472561Z" fill="#FBE481"/>
<path opacity="0.5" d="M126.236 27.2186C126.242 30.7706 125.547 34.2886 124.193 37.5723C122.84 40.856 120.852 43.8408 118.344 46.3563C115.837 48.8719 112.858 50.869 109.579 52.2333C106.3 53.5977 102.784 54.303 99.2317 54.3086C95.9407 54.3168 92.677 53.7122 89.6073 52.5255C112.164 44.1901 117.363 24.5977 116.225 6.16533C119.354 8.70906 121.877 11.9189 123.609 15.561C125.341 19.2031 126.238 23.1858 126.236 27.2186Z" fill="#F8A547"/>
<path d="M87.2657 8.36578C87.7183 7.98249 87.899 7.45153 87.6689 7.17986C87.439 6.90821 86.8854 6.99869 86.4328 7.38199C85.9799 7.76531 85.7992 8.29626 86.0293 8.56794C86.2594 8.83959 86.8128 8.7491 87.2657 8.36578Z" fill="white"/>
<path d="M82.7076 22.4281C82.6428 22.3957 82.5918 22.3409 82.5641 22.2737C82.5366 22.2066 82.534 22.1319 82.5573 22.0629L84.0825 18.4324C84.0967 18.3985 84.1173 18.3678 84.1433 18.3419C84.1693 18.316 84.2003 18.2955 84.234 18.2815C84.2679 18.2676 84.3042 18.2604 84.341 18.2605C84.3777 18.2606 84.414 18.2679 84.4478 18.282C84.5128 18.3145 84.5638 18.3693 84.5915 18.4365C84.619 18.5036 84.6213 18.5784 84.5981 18.6472L83.0514 22.2777C83.0428 22.313 83.026 22.3458 83.0028 22.3735C82.9794 22.4013 82.95 22.4234 82.9167 22.4378C82.8834 22.4524 82.8473 22.459 82.811 22.4573C82.7749 22.4558 82.7394 22.4457 82.7076 22.4281Z" fill="#3E3126"/>
<path d="M84.7505 20.688H84.643C84.6072 20.6767 84.5741 20.6575 84.5464 20.632C84.5189 20.6066 84.497 20.5753 84.4826 20.5405C84.4684 20.5057 84.4617 20.4682 84.4634 20.4306C84.4652 20.393 84.4753 20.3562 84.4927 20.3228L85.309 18.3894C85.3374 18.321 85.3919 18.2667 85.4605 18.2385C85.529 18.2103 85.6059 18.2105 85.6742 18.239C85.7425 18.2675 85.7969 18.322 85.825 18.3904C85.8532 18.4589 85.853 18.5358 85.8246 18.6042L85.0082 20.5377C84.982 20.583 84.9444 20.6207 84.8993 20.6471C84.854 20.6735 84.8027 20.6876 84.7505 20.688Z" fill="#3E3126"/>
<path d="M99.6998 54.6953C94.3245 54.7166 89.064 53.1421 84.5844 50.1712C80.1048 47.2003 76.6076 42.9669 74.5357 38.0069C72.4641 33.0471 71.911 27.5838 72.9466 22.3093C73.9821 17.0349 76.5599 12.1864 80.3531 8.37801C84.1466 4.56964 88.9847 1.97274 94.2552 0.916238C99.5254 -0.140258 104.991 0.391182 109.959 2.44324C114.927 4.49531 119.174 7.97566 122.163 12.4435C125.151 16.9113 126.747 22.1656 126.747 27.5408C126.747 34.7241 123.901 41.6145 118.831 46.7041C113.762 51.7934 106.883 54.6669 99.6998 54.6953ZM99.6998 2.55613C94.7546 2.53912 89.9156 3.98997 85.7956 6.72496C81.6756 9.45996 78.4598 13.3561 76.5558 17.9199C74.6515 22.4838 74.1443 27.5099 75.0988 32.3623C76.0531 37.2144 78.4259 41.6743 81.9164 45.1771C85.4072 48.6798 89.8589 51.0679 94.7078 52.0389C99.5567 53.01 104.585 52.5201 109.155 50.6318C113.725 48.7432 117.632 45.541 120.382 41.4304C123.131 37.3199 124.598 32.486 124.599 27.5408C124.604 20.9276 121.986 14.5823 117.317 9.89801C112.649 5.21372 106.313 2.57319 99.6998 2.55613Z" fill="#F8A547"/>
<path d="M72.6983 28.0781C72.5556 28.0781 72.4192 28.0216 72.3185 27.9209C72.2177 27.8201 72.1612 27.6835 72.1612 27.5411C72.1533 25.672 72.3406 23.8073 72.7198 21.977C72.7299 21.9067 72.7544 21.8393 72.7917 21.7787C72.8293 21.7183 72.8788 21.6663 72.9372 21.6259C72.9958 21.5858 73.062 21.5578 73.1318 21.5443C73.2014 21.5308 73.2734 21.5318 73.3428 21.5473C73.4139 21.5602 73.4818 21.5871 73.5424 21.6268C73.6027 21.6663 73.6547 21.7179 73.6949 21.778C73.7349 21.8382 73.7626 21.9059 73.7759 21.977C73.7892 22.0481 73.7879 22.1211 73.7724 22.1918C73.4098 23.9517 73.2298 25.7442 73.2354 27.5411C73.2354 27.6835 73.1787 27.8201 73.0779 27.9209C72.9771 28.0216 72.8407 28.0781 72.6983 28.0781Z" fill="#3E3126"/>
<path d="M99.7056 55.1681C93.1823 55.1776 86.8685 52.866 81.8934 48.6465C76.9184 44.4273 73.6068 38.5756 72.5511 32.1384C72.5301 32.0654 72.5247 31.9889 72.5355 31.9137C72.5462 31.8387 72.5728 31.7665 72.6134 31.7025C72.654 31.6383 72.7078 31.5835 72.7709 31.5416C72.8343 31.4999 72.9058 31.4718 72.9806 31.4598C73.0556 31.4475 73.1323 31.4512 73.2055 31.4707C73.2788 31.4903 73.3473 31.5253 73.4062 31.573C73.465 31.6209 73.5129 31.6808 73.5471 31.7485C73.5813 31.8164 73.6006 31.8907 73.6038 31.9665C74.7052 38.2744 78.0473 43.9723 83.0153 48.0124C87.9832 52.0525 94.2429 54.1629 100.643 53.9554C107.043 53.7481 113.153 51.2367 117.849 46.8834C122.545 42.5301 125.511 36.6277 126.201 30.2617C126.892 23.8956 125.261 17.4944 121.608 12.2352C117.955 6.97601 112.526 3.21265 106.32 1.63734C100.113 0.062037 93.5464 0.780736 87.8277 3.66123C82.1089 6.54173 77.6224 11.3903 75.1935 17.3151C75.1364 17.4466 75.0311 17.5512 74.8992 17.6072C74.7671 17.6632 74.6187 17.6663 74.4846 17.6159C74.3531 17.5589 74.2485 17.4535 74.1924 17.3215C74.1366 17.1896 74.1334 17.0411 74.1839 16.907C76.1137 12.3098 79.2536 8.32159 83.2694 5.36661C87.2852 2.41166 92.0269 0.60038 96.9901 0.125444C101.953 -0.349493 106.952 0.529667 111.456 2.66941C115.959 4.80918 119.798 8.12949 122.565 12.2773C125.332 16.425 126.923 21.2451 127.168 26.225C127.414 31.2048 126.305 36.1581 123.96 40.558C121.615 44.9579 118.121 48.6401 113.851 51.2127C109.58 53.7853 104.691 55.1522 99.7056 55.1681Z" fill="#3E3126"/>
<path d="M72.6356 30.3336C72.9441 30.3336 73.1941 30.0836 73.1941 29.7751C73.1941 29.4666 72.9441 29.2165 72.6356 29.2165C72.3271 29.2165 72.077 29.4666 72.077 29.7751C72.077 30.0836 72.3271 30.3336 72.6356 30.3336Z" fill="#3E3126"/>
<path d="M99.7065 49.4539C95.3645 49.4666 91.1167 48.1905 87.5007 45.7872C83.8847 43.3839 81.0633 39.9614 79.3939 35.9534C77.7247 31.9453 77.2823 27.532 78.123 23.2724C78.9638 19.0128 81.0498 15.0985 84.1169 12.0254C87.184 8.95223 91.0944 6.8585 95.3523 6.00936C99.6102 5.16021 104.024 5.59386 108.036 7.2554C112.047 8.91693 115.475 11.7316 117.885 15.3428C120.296 18.9541 121.58 23.1994 121.576 27.5413C121.576 33.3453 119.273 38.9124 115.173 43.0206C111.073 47.1288 105.51 49.4425 99.7065 49.4539ZM99.7065 7.77696C95.7946 7.7642 91.9672 8.91251 88.7085 11.0765C85.4497 13.2404 82.9066 16.3227 81.4006 19.933C79.8949 23.5433 79.4942 27.5194 80.2496 31.3575C81.0049 35.1956 82.8821 38.7234 85.6437 41.4938C88.4051 44.2642 91.9266 46.153 95.7624 46.921C99.598 47.6888 103.575 47.3013 107.19 45.8072C110.806 44.3132 113.896 41.78 116.071 38.5283C118.245 35.2769 119.406 31.4531 119.406 27.5413C119.412 22.3089 117.34 17.2882 113.647 13.5823C109.953 9.87636 104.939 7.78835 99.7065 7.77696Z" fill="#F8A547"/>
<path d="M84.5966 43.331C84.4834 43.3295 84.3751 43.2831 84.2959 43.2021C82.2354 41.1507 80.6042 38.7092 79.4977 36.0202C78.3911 33.3311 77.8314 30.4488 77.851 27.5411C77.8611 23.072 79.2257 18.7109 81.7645 15.0329C84.3034 11.355 87.8975 8.53294 92.0727 6.93902C92.1262 6.91852 92.1833 6.90896 92.2407 6.91087C92.2981 6.91278 92.3543 6.92615 92.4063 6.95016C92.4583 6.9742 92.5052 7.00841 92.5438 7.05075C92.5823 7.09311 92.6121 7.14276 92.6313 7.19681C92.6669 7.30526 92.6603 7.42318 92.6124 7.52683C92.5644 7.63049 92.4792 7.71214 92.3735 7.75537C89.0602 9.011 86.1153 11.0785 83.8086 13.7683C81.5022 16.4581 79.9082 19.6839 79.1726 23.1499C78.437 26.616 78.5836 30.2114 79.5988 33.6061C80.6141 37.0006 82.4655 40.0862 84.9833 42.5791C85.0635 42.6631 85.1081 42.7746 85.1081 42.8906C85.1081 43.0066 85.0635 43.1183 84.9833 43.2021C84.9346 43.2541 84.8738 43.293 84.8063 43.3153C84.7389 43.3379 84.6667 43.3433 84.5966 43.331Z" fill="#3E3126"/>
<path d="M99.7006 49.5396C95.7093 49.5385 91.7945 48.4465 88.3791 46.3816C88.3295 46.355 88.2859 46.3182 88.2511 46.2742C88.2165 46.2299 88.1912 46.1788 88.177 46.1245C88.163 46.0699 88.1602 46.0132 88.169 45.9575C88.1781 45.9019 88.1982 45.8488 88.2288 45.8016C88.2573 45.7513 88.296 45.7073 88.3422 45.6724C88.3884 45.6374 88.4412 45.6121 88.4973 45.5981C88.5536 45.5839 88.612 45.5816 88.6692 45.5906C88.7263 45.5996 88.7811 45.6202 88.8303 45.6512C91.622 47.3028 94.7566 48.2893 97.9912 48.5338C101.226 48.7785 104.473 48.2747 107.481 47.0615C110.49 45.8482 113.178 43.9583 115.338 41.5385C117.498 39.1184 119.072 36.2333 119.937 33.1071C120.802 29.9807 120.935 26.6972 120.326 23.5111C119.717 20.325 118.382 17.3221 116.425 14.7352C114.468 12.1483 111.941 10.0471 109.041 8.59445C106.14 7.14179 102.944 6.3768 99.7006 6.35882C98.5713 6.35753 97.4436 6.44372 96.3278 6.6166C96.2279 6.64427 96.1216 6.63301 96.0299 6.58517C95.9381 6.5373 95.8679 6.4564 95.8337 6.35882C95.8245 6.3023 95.8268 6.24456 95.8402 6.18894C95.8537 6.1333 95.8782 6.08094 95.9123 6.03492C95.9463 5.98889 95.9893 5.95011 96.0384 5.92089C96.0876 5.89165 96.1422 5.87256 96.1989 5.86471C97.3562 5.67403 98.5275 5.5806 99.7006 5.58544C105.535 5.58544 111.13 7.90313 115.256 12.0286C119.381 16.1542 121.699 21.7497 121.699 27.584C121.699 33.4184 119.381 39.0138 115.256 43.1392C111.13 47.2648 105.535 49.5826 99.7006 49.5826V49.5396Z" fill="#3E3126"/>
<path d="M94.2277 7.19642C94.5361 7.19642 94.7862 6.94636 94.7862 6.63787C94.7862 6.32939 94.5361 6.07931 94.2277 6.07931C93.9192 6.07931 93.6691 6.32939 93.6691 6.63787C93.6691 6.94636 93.9192 7.19642 94.2277 7.19642Z" fill="#3E3126"/>
<path d="M86.4485 45.2217C86.757 45.2217 87.007 44.9717 87.007 44.6632C87.007 44.3547 86.757 44.1046 86.4485 44.1046C86.14 44.1046 85.8899 44.3547 85.8899 44.6632C85.8899 44.9717 86.14 45.2217 86.4485 45.2217Z" fill="#3E3126"/>
<path d="M99.7065 49.4539C95.3645 49.4666 91.1167 48.1905 87.5007 45.7872C83.8847 43.3839 81.0633 39.9614 79.3939 35.9534C77.7247 31.9453 77.2823 27.532 78.123 23.2724C78.9638 19.0128 81.0498 15.0985 84.1169 12.0254C87.184 8.95223 91.0944 6.8585 95.3523 6.00936C99.6102 5.16021 104.024 5.59386 108.036 7.2554C112.047 8.91693 115.475 11.7316 117.885 15.3428C120.296 18.9541 121.58 23.1994 121.576 27.5413C121.576 33.3453 119.273 38.9124 115.173 43.0206C111.073 47.1288 105.51 49.4425 99.7065 49.4539ZM99.7065 7.77696C95.7946 7.7642 91.9672 8.91251 88.7085 11.0765C85.4497 13.2404 82.9066 16.3227 81.4006 19.933C79.8949 23.5433 79.4942 27.5194 80.2496 31.3575C81.0049 35.1956 82.8821 38.7234 85.6437 41.4938C88.4051 44.2642 91.9266 46.153 95.7624 46.921C99.598 47.6888 103.575 47.3013 107.19 45.8072C110.806 44.3132 113.896 41.78 116.071 38.5283C118.245 35.2769 119.406 31.4531 119.406 27.5413C119.412 22.3089 117.34 17.2882 113.647 13.5823C109.953 9.87636 104.939 7.78835 99.7065 7.77696Z" fill="#F8A547"/>
<path d="M84.5966 43.331C84.4834 43.3295 84.3751 43.2831 84.2959 43.2021C82.2354 41.1507 80.6042 38.7092 79.4977 36.0202C78.3911 33.3311 77.8314 30.4488 77.851 27.5411C77.8611 23.072 79.2257 18.7109 81.7645 15.0329C84.3034 11.355 87.8975 8.53294 92.0727 6.93902C92.1262 6.91852 92.1833 6.90896 92.2407 6.91087C92.2981 6.91278 92.3543 6.92615 92.4063 6.95016C92.4583 6.9742 92.5052 7.00841 92.5438 7.05075C92.5823 7.09311 92.6121 7.14276 92.6313 7.19681C92.6669 7.30526 92.6603 7.42318 92.6124 7.52683C92.5644 7.63049 92.4792 7.71214 92.3735 7.75537C89.0602 9.011 86.1153 11.0785 83.8086 13.7683C81.5022 16.4581 79.9082 19.6839 79.1726 23.1499C78.437 26.616 78.5836 30.2114 79.5988 33.6061C80.6141 37.0006 82.4655 40.0862 84.9833 42.5791C85.0635 42.6631 85.1081 42.7746 85.1081 42.8906C85.1081 43.0066 85.0635 43.1183 84.9833 43.2021C84.9346 43.2541 84.8738 43.293 84.8063 43.3153C84.7389 43.3379 84.6667 43.3433 84.5966 43.331Z" fill="#3E3126"/>
<path d="M99.7006 49.5396C95.7093 49.5385 91.7945 48.4465 88.3791 46.3816C88.3295 46.355 88.2859 46.3182 88.2511 46.2742C88.2165 46.2299 88.1912 46.1788 88.177 46.1245C88.163 46.0699 88.1602 46.0132 88.169 45.9575C88.1781 45.9019 88.1982 45.8488 88.2288 45.8016C88.2573 45.7513 88.296 45.7073 88.3422 45.6724C88.3884 45.6374 88.4412 45.6121 88.4973 45.5981C88.5536 45.5839 88.612 45.5816 88.6692 45.5906C88.7263 45.5996 88.7811 45.6202 88.8303 45.6512C91.622 47.3028 94.7566 48.2893 97.9912 48.5338C101.226 48.7785 104.473 48.2747 107.481 47.0615C110.49 45.8482 113.178 43.9583 115.338 41.5385C117.498 39.1184 119.072 36.2333 119.937 33.1071C120.802 29.9807 120.935 26.6972 120.326 23.5111C119.717 20.325 118.382 17.3221 116.425 14.7352C114.468 12.1483 111.941 10.0471 109.041 8.59445C106.14 7.14179 102.944 6.3768 99.7006 6.35882C98.5713 6.35753 97.4436 6.44372 96.3278 6.6166C96.2279 6.64427 96.1216 6.63301 96.0299 6.58517C95.9381 6.5373 95.8679 6.4564 95.8337 6.35882C95.8245 6.3023 95.8268 6.24456 95.8402 6.18894C95.8537 6.1333 95.8782 6.08094 95.9123 6.03492C95.9463 5.98889 95.9893 5.95011 96.0384 5.92089C96.0876 5.89165 96.1422 5.87256 96.1989 5.86471C97.3562 5.67403 98.5275 5.5806 99.7006 5.58544C105.535 5.58544 111.13 7.90313 115.256 12.0286C119.381 16.1542 121.699 21.7497 121.699 27.584C121.699 33.4184 119.381 39.0138 115.256 43.1392C111.13 47.2648 105.535 49.5826 99.7006 49.5826V49.5396Z" fill="#3E3126"/>
<path d="M94.2277 7.19642C94.5361 7.19642 94.7862 6.94636 94.7862 6.63787C94.7862 6.32939 94.5361 6.07931 94.2277 6.07931C93.9192 6.07931 93.6691 6.32939 93.6691 6.63787C93.6691 6.94636 93.9192 7.19642 94.2277 7.19642Z" fill="#3E3126"/>
<path d="M86.4485 45.2217C86.757 45.2217 87.007 44.9717 87.007 44.6632C87.007 44.3547 86.757 44.1046 86.4485 44.1046C86.14 44.1046 85.8899 44.3547 85.8899 44.6632C85.8899 44.9717 86.14 45.2217 86.4485 45.2217Z" fill="#3E3126"/>
<path d="M73.9026 20.0007C74.2111 20.0007 74.4612 19.7506 74.4612 19.4422C74.4612 19.1337 74.2111 18.8836 73.9026 18.8836C73.5941 18.8836 73.3441 19.1337 73.3441 19.4422C73.3441 19.7506 73.5941 20.0007 73.9026 20.0007Z" fill="#3E3126"/>
<path d="M80.0667 15.0811C79.9748 15.1008 79.8796 15.1008 79.7875 15.0811C79.726 15.0438 79.6725 14.9945 79.6304 14.9362C79.5883 14.8778 79.5585 14.8117 79.5423 14.7415C79.5264 14.6714 79.5245 14.5988 79.5372 14.5279C79.5496 14.4571 79.5765 14.3895 79.6156 14.3292C80.9508 12.2891 82.5961 10.4698 84.4922 8.93697C84.5962 8.83718 84.7348 8.78148 84.8789 8.78148C85.0231 8.78148 85.1616 8.83718 85.2656 8.93697C85.364 9.03736 85.4192 9.17234 85.4192 9.31292C85.4192 9.45351 85.364 9.58849 85.2656 9.68888C83.4131 11.1732 81.8165 12.9513 80.5394 14.9522C80.4747 15.0069 80.3991 15.0467 80.3174 15.069C80.2356 15.0913 80.1501 15.0954 80.0667 15.0811Z" fill="white"/>
<path opacity="0.4" d="M107.694 39.55C107.955 39.55 108.167 39.3384 108.167 39.0774C108.167 38.8164 107.955 38.6048 107.694 38.6048C107.433 38.6048 107.222 38.8164 107.222 39.0774C107.222 39.3384 107.433 39.55 107.694 39.55Z" fill="#F8A547"/>
<path d="M107.97 46.4033C108.883 46.4033 109.624 45.6628 109.624 44.7491C109.624 43.8354 108.883 43.0949 107.97 43.0949C107.056 43.0949 106.315 43.8354 106.315 44.7491C106.315 45.6628 107.056 46.4033 107.97 46.4033Z" fill="#F8A547"/>
<path d="M109.089 41.7628C109.398 41.7628 109.648 41.5127 109.648 41.2042C109.648 40.8957 109.398 40.6457 109.089 40.6457C108.781 40.6457 108.531 40.8957 108.531 41.2042C108.531 41.5127 108.781 41.7628 109.089 41.7628Z" fill="#F8A547"/>
<path d="M104.147 46.0377C104.455 46.0377 104.705 45.7876 104.705 45.4791C104.705 45.1708 104.455 44.9208 104.147 44.9208C103.838 44.9208 103.588 45.1708 103.588 45.4791C103.588 45.7876 103.838 46.0377 104.147 46.0377Z" fill="#F8A547"/>
<path d="M112.097 43.6748C112.476 43.6748 112.784 43.3669 112.784 42.9873C112.784 42.6075 112.476 42.2998 112.097 42.2998C111.717 42.2998 111.409 42.6075 111.409 42.9873C111.409 43.3669 111.717 43.6748 112.097 43.6748Z" fill="#F8A547"/>
<path opacity="0.4" d="M104.581 43.8681C104.842 43.8681 105.054 43.6565 105.054 43.3955C105.054 43.1345 104.842 42.9229 104.581 42.9229C104.32 42.9229 104.108 43.1345 104.108 43.3955C104.108 43.6565 104.32 43.8681 104.581 43.8681Z" fill="#F8A547"/>
<path opacity="0.4" d="M106.037 42.493C106.31 42.493 106.532 42.2717 106.532 41.9989C106.532 41.7258 106.31 41.5048 106.037 41.5048C105.765 41.5048 105.543 41.7258 105.543 41.9989C105.543 42.2717 105.765 42.493 106.037 42.493Z" fill="#F8A547"/>
<path opacity="0.4" d="M105.972 40.1515C106.079 40.1515 106.165 40.0652 106.165 39.9582C106.165 39.8514 106.079 39.7649 105.972 39.7649C105.865 39.7649 105.778 39.8514 105.778 39.9582C105.778 40.0652 105.865 40.1515 105.972 40.1515Z" fill="#F8A547"/>
<path d="M106.641 52.6114C107.186 52.6114 107.629 52.1689 107.629 51.6232C107.629 51.0773 107.186 50.635 106.641 50.635C106.095 50.635 105.653 51.0773 105.653 51.6232C105.653 52.1689 106.095 52.6114 106.641 52.6114Z" fill="#F8A547"/>
<path d="M107.326 50.2698C107.504 50.2698 107.648 50.1254 107.648 49.9476C107.648 49.7697 107.504 49.6253 107.326 49.6253C107.148 49.6253 107.004 49.7697 107.004 49.9476C107.004 50.1254 107.148 50.2698 107.326 50.2698Z" fill="#F8A547"/>
<path d="M104.389 52.8052C104.567 52.8052 104.711 52.6609 104.711 52.483C104.711 52.3049 104.567 52.1607 104.389 52.1607C104.211 52.1607 104.066 52.3049 104.066 52.483C104.066 52.6609 104.211 52.8052 104.389 52.8052Z" fill="#F8A547"/>
<path d="M109.115 51.3873C109.341 51.3873 109.524 51.2045 109.524 50.9792C109.524 50.7536 109.341 50.571 109.115 50.571C108.89 50.571 108.707 50.7536 108.707 50.9792C108.707 51.2045 108.89 51.3873 109.115 51.3873Z" fill="#F8A547"/>
<path opacity="0.4" d="M104.639 51.516C104.794 51.516 104.919 51.391 104.919 51.2368C104.919 51.0825 104.794 50.9575 104.639 50.9575C104.485 50.9575 104.36 51.0825 104.36 51.2368C104.36 51.391 104.485 51.516 104.639 51.516Z" fill="#F8A547"/>
<path opacity="0.4" d="M105.5 50.6995C105.666 50.6995 105.801 50.5648 105.801 50.3987C105.801 50.2324 105.666 50.0979 105.5 50.0979C105.334 50.0979 105.199 50.2324 105.199 50.3987C105.199 50.5648 105.334 50.6995 105.5 50.6995Z" fill="#F8A547"/>
<path opacity="0.4" d="M105.483 49.2816C105.542 49.2816 105.59 49.2335 105.59 49.1742C105.59 49.1149 105.542 49.0668 105.483 49.0668C105.424 49.0668 105.376 49.1149 105.376 49.1742C105.376 49.2335 105.424 49.2816 105.483 49.2816Z" fill="#F8A547"/>
<path d="M100.732 47.8639C101.064 47.8639 101.334 47.5948 101.334 47.2624C101.334 46.9303 101.064 46.6609 100.732 46.6609C100.4 46.6609 100.131 46.9303 100.131 47.2624C100.131 47.5948 100.4 47.8639 100.732 47.8639Z" fill="#F8A547"/>
<path d="M90.6052 15.8447C91.5898 14.4339 91.6149 12.7508 90.6615 12.0854C89.7079 11.42 88.1368 12.0242 87.1522 13.435C86.1677 14.8458 86.1425 16.5289 87.096 17.1943C88.0496 17.8598 89.6206 17.2555 90.6052 15.8447Z" fill="#FFEFAE"/>
<path d="M106.276 29.9901C105.988 29.3282 105.572 28.7295 105.052 28.2285C104.544 27.7451 103.973 27.3333 103.354 27.004C102.769 26.6759 102.159 26.3956 101.528 26.1662C100.712 25.8439 99.9387 25.5431 99.2083 25.2209C98.5545 24.953 97.9513 24.5751 97.4252 24.1038C97.2022 23.8918 97.0273 23.6344 96.9124 23.3489C96.7974 23.0636 96.7452 22.7568 96.7592 22.4496C96.7495 21.9877 96.8527 21.5303 97.06 21.1176C97.2896 20.7466 97.6269 20.4544 98.0267 20.2797C98.5664 20.0659 99.1436 19.9636 99.7238 19.979C100.335 19.9588 100.939 20.1155 101.464 20.4301C101.962 20.734 102.398 21.1273 102.753 21.5903C103.124 22.0928 103.455 22.6245 103.741 23.18L106.491 21.3968C106.135 20.615 105.665 19.8909 105.095 19.2486C104.459 18.5541 103.692 17.992 102.839 17.5944C102.279 17.3442 101.685 17.1777 101.077 17.1003V13.7919H98.3489V17.0788C97.6067 17.1704 96.8825 17.3732 96.2006 17.6803C95.2743 18.1052 94.4747 18.7642 93.8805 19.5923C93.3215 20.3505 93.027 21.2713 93.0427 22.2133C93.013 23.0825 93.1973 23.9455 93.5797 24.7268C93.914 25.3951 94.3735 25.993 94.9331 26.4884C95.4627 26.9619 96.0556 27.3595 96.6948 27.67C97.2449 27.9479 97.8117 28.1918 98.3919 28.4004C99.1653 28.7011 99.9172 29.0019 100.54 29.3456C101.187 29.6389 101.77 30.0548 102.259 30.5702C102.713 31.084 102.952 31.7537 102.925 32.4392C102.946 32.9689 102.827 33.4948 102.581 33.9645C102.356 34.3937 101.993 34.7344 101.55 34.9312C100.993 35.1649 100.392 35.2749 99.7883 35.2534C99.0426 35.2661 98.3051 35.0966 97.64 34.7593C96.9824 34.3905 96.4054 33.8938 95.9429 33.2985C95.3781 32.593 94.902 31.8209 94.525 30.9998L91.8396 32.7399C92.2549 33.7915 92.8676 34.754 93.6442 35.5757C94.4036 36.4013 95.3153 37.0724 96.3295 37.5521C96.9298 37.832 97.5661 38.0271 98.22 38.1322V41.2901H100.991V38.1966C101.86 38.1302 102.711 37.9122 103.505 37.5521C104.485 37.0812 105.306 36.3345 105.868 35.4038C106.424 34.4455 106.706 33.3533 106.684 32.2458C106.705 31.4737 106.566 30.7059 106.276 29.9901Z" fill="white"/>
</svg>
