<svg width="102" height="101" viewBox="0 0 102 101" fill="none" xmlns="http://www.w3.org/2000/svg">
<path d="M35.166 65.625C39.8926 62.3164 45.1706 60.6621 51 60.6621C56.8294 60.6621 62.0286 62.3164 66.5977 65.625C71.3242 68.776 74.7116 72.9512 76.7598 78.1504H68.4883C64.5495 71.5332 58.7201 68.2246 51 68.2246C43.2799 68.2246 37.4505 71.5332 33.5117 78.1504H25.2402C27.2884 72.9512 30.597 68.776 35.166 65.625ZM22.4043 79.0957C30.4395 86.9733 39.9714 90.9121 51 90.9121C62.0286 90.9121 71.4818 86.9733 79.3594 79.0957C87.3945 71.0605 91.4121 61.5286 91.4121 50.5C91.4121 39.4714 87.3945 30.0182 79.3594 22.1406C71.4818 14.1055 62.0286 10.0879 51 10.0879C39.9714 10.0879 30.4395 14.1055 22.4043 22.1406C14.5267 30.0182 10.5879 39.4714 10.5879 50.5C10.5879 61.5286 14.5267 71.0605 22.4043 79.0957ZM15.3145 15.0508C25.2402 5.125 37.1354 0.162109 51 0.162109C64.8646 0.162109 76.681 5.125 86.4492 15.0508C96.375 24.819 101.338 36.6354 101.338 50.5C101.338 64.3646 96.375 76.2598 86.4492 86.1855C76.681 95.9538 64.8646 100.838 51 100.838C37.1354 100.838 25.2402 95.9538 15.3145 86.1855C5.54622 76.2598 0.662109 64.3646 0.662109 50.5C0.662109 36.6354 5.54622 24.819 15.3145 15.0508ZM27.8398 43.4102C26.4219 41.8346 25.7129 40.0228 25.7129 37.9746C25.7129 35.9264 26.4219 34.1934 27.8398 32.7754C29.4154 31.1999 31.2272 30.4121 33.2754 30.4121C35.3236 30.4121 37.0566 31.1999 38.4746 32.7754C40.0501 34.1934 40.8379 35.9264 40.8379 37.9746C40.8379 40.0228 40.0501 41.8346 38.4746 43.4102C37.0566 44.8281 35.3236 45.5371 33.2754 45.5371C31.2272 45.5371 29.4154 44.8281 27.8398 43.4102ZM63.2891 43.4102C61.8711 41.8346 61.1621 40.0228 61.1621 37.9746C61.1621 35.9264 61.8711 34.1934 63.2891 32.7754C64.8646 31.1999 66.6764 30.4121 68.7246 30.4121C70.7728 30.4121 72.5059 31.1999 73.9238 32.7754C75.4993 34.1934 76.2871 35.9264 76.2871 37.9746C76.2871 40.0228 75.4993 41.8346 73.9238 43.4102C72.5059 44.8281 70.7728 45.5371 68.7246 45.5371C66.6764 45.5371 64.8646 44.8281 63.2891 43.4102Z" fill="#FF7E7E"/>
</svg>
